<svg xmlns="http://www.w3.org/2000/svg" viewBox="0 0 500 500"><g id="freepik--background-complete--inject-94"><rect x="416.78" y="398.49" width="33.12" height="0.25" style="fill:#ebebeb"></rect><rect x="322.53" y="401.21" width="8.69" height="0.25" style="fill:#ebebeb"></rect><rect x="396.59" y="389.21" width="19.19" height="0.25" style="fill:#ebebeb"></rect><rect x="52.46" y="390.89" width="43.19" height="0.25" style="fill:#ebebeb"></rect><rect x="104.56" y="390.89" width="6.33" height="0.25" style="fill:#ebebeb"></rect><rect x="131.47" y="395.11" width="93.68" height="0.25" style="fill:#ebebeb"></rect><path d="M237,337.8H43.92a5.71,5.71,0,0,1-5.71-5.71V60.66A5.71,5.71,0,0,1,43.92,55H237a5.71,5.71,0,0,1,5.71,5.71V332.09A5.71,5.71,0,0,1,237,337.8ZM43.92,55.2a5.47,5.47,0,0,0-5.46,5.46V332.09a5.47,5.47,0,0,0,5.46,5.46H237a5.47,5.47,0,0,0,5.46-5.46V60.66A5.47,5.47,0,0,0,237,55.2Z" style="fill:#ebebeb"></path><path d="M453.31,337.8H260.21a5.72,5.72,0,0,1-5.71-5.71V60.66A5.72,5.72,0,0,1,260.21,55h193.1A5.71,5.71,0,0,1,459,60.66V332.09A5.71,5.71,0,0,1,453.31,337.8ZM260.21,55.2a5.47,5.47,0,0,0-5.46,5.46V332.09a5.47,5.47,0,0,0,5.46,5.46h193.1a5.47,5.47,0,0,0,5.46-5.46V60.66a5.47,5.47,0,0,0-5.46-5.46Z" style="fill:#ebebeb"></path><rect y="382.4" width="500" height="0.25" style="fill:#ebebeb"></rect><path d="M114.71,196.65c-15.77-.48-60.29,3.83-59.19-17.48C56.46,161.06,78,163.1,78,163.1s.19-15.71,19.55-17.17c19.86-1.49,22,15.56,22,15.56s34.84-9.67,28.22,17.25c0,0,19.16-2.39,18.53,9.8C165.55,202.17,130,197.11,114.71,196.65Z" style="fill:#f0f0f0"></path><path d="M164.58,320.44V291l-19.8-11.4-7.72-24.55L122.51,242.2l-6.65,11.73s-20,10.17-18.53,10.54-10,18.61-10,18.61L66.91,298.41,55,311.66l-2.57,8.78Z" style="fill:#e6e6e6"></path><path d="M263.6,253.2c-1.3-5.13-.07-22.24,13-16.84s18.24,11.47,26.86,14.27,14.64-3.38,23.12,4.15,15.25,2.8,24,9.72S268.19,271.23,263.6,253.2Z" style="fill:#f5f5f5"></path><polygon points="455.25 324.66 455.25 305.31 450.28 309.31 444.55 324.66 455.25 324.66" style="fill:#f0f0f0"></polygon><path d="M74.18,317.19a22.38,22.38,0,0,0-2.61,3l0,.06L65.7,327l-4,9.65c-.74.22-19,.16-19,.16C41.93,335.12,46,328,47.19,327,50.65,324,56.34,316.5,74.18,317.19Z" style="fill:#e0e0e0"></path><polygon points="407.36 328.63 423.5 319.09 437.52 328.63 407.36 328.63" style="fill:#ebebeb"></polygon><path d="M403.23,320.44H99.82L115,290.09l12.32-7.42,16.63,9.67,18,9.15,58.3-18.82,77.44,18.82,3.54,3.33,2.12-.8a4.37,4.37,0,0,1,4.25.68l7.38,5.93,16.92-8.5a3.12,3.12,0,0,1,2.59-.09l6.67,2.78,2.44-1.41a3.1,3.1,0,0,1,4.51,1.74l1.92,5.94,9-4.07a3.13,3.13,0,0,1,3.06.28l4.76,3.33h9.25a3.11,3.11,0,0,1,2.32,1l3.07,3.45h10.77a3.17,3.17,0,0,1,1.44.36Z" style="fill:#f0f0f0"></path><path d="M164.58,336.67H61.68l4-9.65,5.83-6.75,0-.06,2.61-3L84.73,305l13.75-7.27,5.32,1.43,8,14.81,20.85-9s15.52,18.59,20,24.59Z" style="fill:#ebebeb"></path><path d="M302.78,321.65l10-6.79a4.82,4.82,0,0,1,5.67.17L336.52,329l11-5.17A4.87,4.87,0,0,1,352,324l14.21,8.49H297Z" style="fill:#e0e0e0"></path><path d="M430,260.83c0,12.67-10.27,17-22.95,17s-22.94-4.33-22.94-17a22.95,22.95,0,0,1,45.89,0Z" style="fill:#f5f5f5"></path><path d="M399.71,227.46a14.5,14.5,0,0,1-2.32-.75c-1.4-.55-3.2-1.47-5.07-2.37a15.32,15.32,0,0,0-4.95-1.49c-1.32-.15-2.22,0-2.34-.35s.65-1,2.26-1.28a10.23,10.23,0,0,1,6,1,18,18,0,0,1,4.69,3.49C399.07,226.77,399.71,227.46,399.71,227.46Z" style="fill:#e6e6e6"></path><path d="M407.86,220.9l-1.68.65c-1,.41-2.26,1-3.67,1.6-2.81,1.24-5.2,2.53-5.59,2-.18-.26.19-.89,1-1.67A12.65,12.65,0,0,1,401.6,221a8.42,8.42,0,0,1,4.45-.62,6.88,6.88,0,0,1,1.34.31Z" style="fill:#e6e6e6"></path><path d="M384.58,232.35l-.46-.28c-.28-.18-.71-.43-1.23-.71a28.74,28.74,0,0,0-4.11-1.79c-3.27-1.16-6.19-.91-6.28-1.4,0-.22.67-.6,1.93-.78a10.89,10.89,0,0,1,4.91.55,9.63,9.63,0,0,1,4.09,2.75,7.17,7.17,0,0,1,.88,1.19C384.49,232.18,384.58,232.35,384.58,232.35Z" style="fill:#e6e6e6"></path><path d="M387.79,225.6s-.47.28-1.17.67L384,227.74c-2,1.08-3.49,2.34-3.87,2-.17-.16,0-.68.51-1.37a7.89,7.89,0,0,1,2.53-2.15,6.53,6.53,0,0,1,3.23-.79A6,6,0,0,1,387.79,225.6Z" style="fill:#e6e6e6"></path><path d="M381.88,221.76s-1.11-.39-2.8-1.11-4-1.72-6.46-2.54a17.69,17.69,0,0,0-6.55-.91c-1.71.1-2.8.42-2.95.12s.74-1.16,2.66-1.73a13.06,13.06,0,0,1,7.56.32,19.16,19.16,0,0,1,6.34,3.76A25.84,25.84,0,0,1,381.88,221.76Z" style="fill:#e6e6e6"></path><path d="M389.38,212.22l-.63.18c-.4.1-1,.27-1.65.49a45.29,45.29,0,0,0-5,2c-3.8,1.7-6.24,4.22-6.77,3.81-.24-.18.07-1.11,1-2.31a13.35,13.35,0,0,1,4.76-3.6,11.86,11.86,0,0,1,5.86-1,9.77,9.77,0,0,1,1.78.3Z" style="fill:#e6e6e6"></path><path d="M356.67,193.19c-8.37-1.12-20.31-3-22.06-11.26-2.36-11.09,6-13.19,8.52-13.34a27.94,27.94,0,0,1,7.54.94c.45.1.14-1.71.55-1.5,1.4-4.59,5.91-7.83,10.66-8.49s9.62,1,13.55,3.76a39.89,39.89,0,0,1,9.72,10.5,11,11,0,0,1,11.05-1.26,10.4,10.4,0,0,1,5.66,9.19c7.31,0,13.78,6.41,13.39,13.72,0,.8-.5,1.2-.45,2C414.8,197.46,372.53,195.32,356.67,193.19Z" style="fill:#f5f5f5"></path></g><g id="freepik--Shadow--inject-94"><ellipse id="freepik--path--inject-94" cx="245.18" cy="412.39" rx="193.89" ry="11.32" style="fill:#f5f5f5"></ellipse></g><g id="freepik--character-3--inject-94"><path d="M284.15,236.34c-4.34,2.46-2.19,19.4.05,13.63C288.44,239,289.45,233.34,284.15,236.34Z" style="fill:#263238"></path><path d="M279.82,266.64a2.55,2.55,0,0,1,1.05.72,4.78,4.78,0,0,1,.59-.41l1.66-1a15.85,15.85,0,0,1-1.34,2,.83.83,0,0,0-.11.15c.95.85,2.36,2.19,2.65,2,.59-.3,1.71-3.41,1.86-4.07a1.76,1.76,0,0,0,2.16,0,2,2,0,0,0,.59-2.26,1.34,1.34,0,0,0,1.68-.32,1.94,1.94,0,0,0,.3-1.76,2.12,2.12,0,0,0-1.78-1.47,2.89,2.89,0,0,0-3,1.63,1.66,1.66,0,0,0-2,.43,2,2,0,0,0-.13,2.27C283.4,264.67,279.24,266.38,279.82,266.64Z" style="fill:#263238"></path><path d="M306.47,237.29A14.46,14.46,0,0,1,309,248.88a18.85,18.85,0,0,1-6.24,10.27c-.56.49-2.46,1.52-3.18,1.35s.17-1.34.07-2a5.59,5.59,0,0,1,.14-1.91,26,26,0,0,0-2.66-16.68c-1.07-2-4-6.94,0-7.28C300.63,232.37,304.39,234.6,306.47,237.29Z" style="fill:#263238"></path><path d="M282.57,313.35l.57,18.53L295.53,340l23.37-8.18s-1.2-13-4-21.07Z" style="fill:#263238"></path><path d="M306.76,327.19a78.75,78.75,0,0,0-4.09,13c-.66,2.82-1.29,6-1.78,9.57a105.1,105.1,0,0,0-1,15.86c-.11,8.09-.43,12.69-.43,12.69L285,377.49s-1.61-4.39-2.38-13.06c-.92-12.1-1-32.55.51-44.59Z" style="fill:#263238"></path><path d="M302.67,340.23c-.66,2.82-1.29,6-1.78,9.57a17.91,17.91,0,0,1-2.79-4.3c-4.31-9.26-.55-20.12-.55-20.12C299.59,330.67,302,338,302.67,340.23Z" style="opacity:0.2;isolation:isolate"></path><polygon points="359.21 390.78 353.88 394.64 333.44 373.37 331.6 371.45 330.36 370.16 338.62 364.69 339 365.18 341.11 367.84 359.21 390.78" style="fill:#ff8b7b"></polygon><path d="M350.32,396.14c-.51.64-1.15,1.21-1.59,1.21a.6.6,0,0,1-.53-.43.8.8,0,0,1,0-.61c.44-1.06,2.9-2.05,3-2.09a.14.14,0,0,1,.17,0,.17.17,0,0,1,0,.18A11.46,11.46,0,0,1,350.32,396.14Zm-1.66,0a1,1,0,0,0-.15.25.46.46,0,0,0,0,.38c.08.21.18.24.25.24.53,0,1.56-1.28,2.2-2.34A7.37,7.37,0,0,0,348.66,396.17Z" style="fill:#485FC7"></path><path d="M351.41,394.45a.08.08,0,0,1-.05.05c-.76.4-2.87.76-3.36.19-.13-.12-.22-.36,0-.72a1.15,1.15,0,0,1,.75-.52,4.54,4.54,0,0,1,2.64.77.17.17,0,0,1,.07.15A.16.16,0,0,1,351.41,394.45Zm-3.1-.38-.06.06c-.16.24-.08.32-.05.36.32.3,1.84.18,2.73-.16a3.73,3.73,0,0,0-2.13-.57.8.8,0,0,0-.49.31Z" style="fill:#485FC7"></path><path d="M351.16,391.25l3.43-6.32a.58.58,0,0,1,.66-.29l5.77,1.65a1,1,0,0,1,.67,1.18.62.62,0,0,1-.07.19c-1.28,2.26-2.5,4.23-4,7.07-1.81,3.35-.95,2.72-3,6.69-1.25,2.39-4.19,1.36-3.77.28,1.91-4.92.78-6.15.09-8.82A2.38,2.38,0,0,1,351.16,391.25Z" style="fill:#263238"></path><polygon points="339 365.18 341.11 367.84 334.06 374.03 331.6 371.45 331.17 371.81 327.75 367.48 327.45 367.11 336.72 360.41 337.87 361.62 340.25 364.12 339 365.18" style="opacity:0.2;isolation:isolate"></polygon><path d="M295,327.13c5.36,10.89,13.65,22.61,21.1,32.19,5.43,6.8,9.2,9.57,9.2,9.57l12.54-7.28s-2.27-4-6.65-10.82a70.9,70.9,0,0,1-9.73-20.64,84.39,84.39,0,0,0-5.75-15.06l-.07-.14Z" style="fill:#263238"></path><path d="M338,358.47l3.21,4.86-.93.79L339,365.17l-7.39,6.28-.43.36-2.51,2.13s-4.61-4.59-4.56-4.62l.89-.7,11.66-9.12Z" style="fill:#485FC7"></path><polygon points="301.14 412.81 294.56 413.08 289.28 384.06 288.81 381.44 288.49 379.68 298.39 379.68 298.44 380.29 298.73 383.68 301.14 412.81" style="fill:#ff8b7b"></polygon><path d="M291.37,410a2.8,2.8,0,0,1-1.95-.43.59.59,0,0,1,0-.68.83.83,0,0,1,.48-.38c1.09-.35,3.44.87,3.54.93a.15.15,0,0,1,.08.16.16.16,0,0,1-.12.13A11.3,11.3,0,0,1,291.37,410Zm-1.09-1.24a.73.73,0,0,0-.3.05.41.41,0,0,0-.3.23c-.11.19-.06.29,0,.34.33.42,2,.36,3.21.16A7.2,7.2,0,0,0,290.28,408.71Z" style="fill:#485FC7"></path><path d="M293.36,409.68a.09.09,0,0,1-.07,0c-.8-.31-2.44-1.68-2.33-2.43,0-.18.14-.4.56-.46a1.19,1.19,0,0,1,.88.23,4.47,4.47,0,0,1,1.13,2.51.18.18,0,0,1-.07.15A.17.17,0,0,1,293.36,409.68Zm-1.72-2.61h-.09c-.28,0-.29.15-.3.19,0,.45,1.06,1.52,1.89,2a3.71,3.71,0,0,0-.95-2,.85.85,0,0,0-.55-.18Z" style="fill:#485FC7"></path><path d="M294,408.73l7.19-.28a.57.57,0,0,1,.58.43l1.54,5.8a1,1,0,0,1-.68,1.18l-.2,0c-2.6.06-4.91,0-8.14.14-3.81.15-2.82.57-7.3.81-2.7.14-3.31-2.91-2.17-3.1,5.21-.87,5.69-2.47,7.64-4.43A2.34,2.34,0,0,1,294,408.73Z" style="fill:#263238"></path><polygon points="298.44 380.29 298.73 383.68 289.44 384.95 288.81 381.44 288.25 381.5 287.79 376 287.75 375.52 299.18 375.07 299.47 376.71 300.07 380.1 298.44 380.29" style="opacity:0.2;isolation:isolate"></polygon><path d="M301.29,374.14V380l-1.21.14-1.63.19-9.63,1.15-.56.06-3.27.38s-1.3-6.36-1.24-6.36l1.12-.09,14.76-1.16Z" style="fill:#485FC7"></path><g id="freepik--character-1--inject-18--inject-94"><path d="M283.1,268.48s-16-3.92-17.61-4.94l1.27,1.61a54.37,54.37,0,0,1-1.82-5.4c-.57-1.94-1.14-3.89-1.67-5.87L261.65,248c-.55-2-1.07-3.94-1.66-5.94h0a2,2,0,0,0-4,.68c.11,2.1.32,4.15.51,6.23s.49,4.13.76,6.2.63,4.13,1,6.21a47.82,47.82,0,0,0,1.62,6.47,3,3,0,0,0,1,1.47l.2.15s9.7,6.41,19.31,7.32c.6,0,1.18,0,1.8-.08s1.13-.08,1.9-.19a4.06,4.06,0,1,0-.9-8.06Z" style="fill:#ff8b7b"></path><path d="M260.3,246.06l2.3-5.1-7.28-2.09s-1.65,4.06.93,7.35Z" style="fill:#ff8b7b"></path><path d="M259.87,235.41l-1.93,0a2.35,2.35,0,0,0-2.34,1.94l-.28,1.54L262.6,241l-.4-3.52A2.36,2.36,0,0,0,259.87,235.41Z" style="fill:#ff8b7b"></path><path d="M283.74,281.61c-3.73.82-12-3.39-11.71-7.2.21-3.16.36-5.47.57-8.63a3.79,3.79,0,0,1,2.64-.89,16.58,16.58,0,0,1,12.56,5.17c.35.38.55,4.44.81,4.92l1.91,3.61A21,21,0,0,1,283.74,281.61Z" style="fill:#485FC7"></path><path d="M285.63,281.44a4.25,4.25,0,0,0,.27-4.14c-3.27,1.64-8.14,1.08-12.06.91h.51C277.61,281.34,281.3,282.76,285.63,281.44Z" style="opacity:0.2;isolation:isolate"></path><path d="M289.89,267.45l-5.69,1.48c1.22,4.58-3.92,8.34-4.92,13-.88,4.06,1.19,8.09,2.54,12,2.88,8.39.08,12.93-.27,21.78,5,1.13,15,.67,34.31-3.39-5.82-12.92-8.66-34-5.16-41.29C304.61,267.44,296.73,265.68,289.89,267.45Z" style="fill:#485FC7"></path><path d="M298.86,256.68c0,4.77-.46,11.69,3.26,11.64,0,0-1.49,1.53-4.84,5.54-2.91,3.49-8.73,3-9.4-1.54-.4-2.74.08-2.95.08-2.95,4.07-2.32,3.52-4.87,2.2-8.63l6-5.73C297.21,253.91,298.84,254.93,298.86,256.68Z" style="fill:#ff8b7b"></path><path d="M290.17,260.73l6-5.72c1.84,5.05,2,7.66-.45,9.57a7.37,7.37,0,0,1-4.74,1.36C291.37,264.46,290.92,262.76,290.17,260.73Z" style="opacity:0.2;isolation:isolate"></path><path d="M305.35,248.06c-1,6.69-1.23,10.67-5.34,13.82-6.19,4.72-15.29.87-16.56-6-1.16-6.18.73-16.11,8.38-18.18S306.35,241.35,305.35,248.06Z" style="fill:#ff8b7b"></path><path d="M286.32,246.9c-.17.58-.61.95-1,.84s-.54-.66-.37-1.24.61-.95,1-.84S286.49,246.32,286.32,246.9Z" style="fill:#263238"></path><path d="M286.06,245.72l-1.36-.79S285.78,247,286.06,245.72Z" style="fill:#263238"></path><path d="M292.86,247.36c-.17.58-.6,1-1,.85s-.54-.67-.37-1.24.6-.95,1-.85S293,246.8,292.86,247.36Z" style="fill:#263238"></path><path d="M292.58,246.18l-1.31-.77S292.33,247.47,292.58,246.18Z" style="fill:#263238"></path><path d="M295,245.93a.35.35,0,0,1-.29-.22,2.84,2.84,0,0,0-1.83-1.76.36.36,0,0,1,.16-.69,3.51,3.51,0,0,1,2.32,2.2.35.35,0,0,1-.2.45.32.32,0,0,1-.17,0Z" style="fill:#263238"></path><path d="M284.46,243.65a.34.34,0,0,1-.19-.09.35.35,0,0,1,0-.5,3.42,3.42,0,0,1,3-1.19.35.35,0,0,1,.29.4.37.37,0,0,1-.4.3h0a2.74,2.74,0,0,0-2.34,1A.43.43,0,0,1,284.46,243.65Z" style="fill:#263238"></path><path d="M287.7,247.75a18.62,18.62,0,0,1-3.35,3.74,3,3,0,0,0,2.29,1Z" style="fill:#ff5652"></path><path d="M319.79,266.78c-.22.16-.36.17-1,1a5,5,0,0,0-.76-.31l-2-.7a17.14,17.14,0,0,0,1.94,1.87l.15.14c-.83,1.15-2.05,2.95-2.4,2.86-.72-.18-2.68-3.31-3-4a2,2,0,0,1-2.35.54,2.26,2.26,0,0,1-1.19-2.33,1.51,1.51,0,0,1-1.91.05,2.17,2.17,0,0,1-.75-1.85,2.4,2.4,0,0,1,1.59-2c2.08-.77,3.12.69,3.64,1.07a1.86,1.86,0,0,1,2.29,0,2.25,2.25,0,0,1,.67,2.44C315.42,265.49,320.37,266.36,319.79,266.78Z" style="fill:#263238"></path><path d="M306.68,254.18a5.46,5.46,0,0,1-3.42,2.12c-1.72.25-2.11-1.51-1.25-3.21.78-1.5,2.6-3.44,4.14-2.92S307.79,252.74,306.68,254.18Z" style="fill:#cb7a63"></path><path d="M305,263.71a2.16,2.16,0,1,0,2.5-3.34,16.84,16.84,0,0,0,1.82-19.68,9.3,9.3,0,0,0-4.4-4c-4.09-1.54-6.83,1.8-7.85,5.34C296,245.83,304.42,262.93,305,263.71Z" style="fill:#263238"></path><path d="M294,253.48a3.89,3.89,0,0,1-.78,1.62c-.8,1-2.14,1.35-4.31,1.39a4,4,0,0,1-1.8-.33,2.23,2.23,0,0,1-1.33-1.89S287.94,253.63,294,253.48Z" style="fill:#263238"></path><path d="M293.26,255.1c-.8,1-2.14,1.35-4.31,1.39a4,4,0,0,1-1.8-.33,3.47,3.47,0,0,1,.6-.67c.65-.66,3.21-.69,4.86-.66C293.05,254.92,292.93,254.8,293.26,255.1Z" style="fill:#de5753"></path><path d="M286.1,254.22a1.48,1.48,0,0,0,1,1,27.58,27.58,0,0,0,5.35-.67,1.58,1.58,0,0,0,1.29-1.08A43,43,0,0,0,286.1,254.22Z" style="fill:#fafafa"></path><path d="M303.86,268.37c7.31.54,9.47,5.27,9.31,11.16,0,1.23-.26,2.83-.27,4C312.91,283.58,299.46,284.32,303.86,268.37Z" style="fill:#cb7a63"></path><path d="M304.83,275.88c.87,1.93,1.79,3.67,2.75,5.46s2,3.52,3,5.23a109.92,109.92,0,0,0,6.88,10l.16.2.08,0A9.57,9.57,0,0,0,321,299a16.61,16.61,0,0,0,3,.92,30.55,30.55,0,0,0,5.57.62,51.7,51.7,0,0,0,5.28-.12,47.58,47.58,0,0,0,5.24-.68,2,2,0,0,0-.19-4l-.05,0c-1.6-.16-3.28-.3-4.9-.5s-3.24-.42-4.8-.72a29.19,29.19,0,0,1-4.4-1.1,9.83,9.83,0,0,1-1.73-.75,2.19,2.19,0,0,1-.81-.67l.22.28c-2-3.23-4-6.41-5.91-9.78-.94-1.67-1.85-3.34-2.75-5s-1.78-3.41-2.62-5l0-.07a4.07,4.07,0,1,0-7.33,3.53h0Z" style="fill:#ff8b7b"></path><path d="M335.62,295.56l5.56-3.33,1.21,7.15a5.56,5.56,0,0,1-6.2.2Z" style="fill:#ff8b7b"></path><path d="M346.35,293.85l.29,2.13a2.31,2.31,0,0,1-1.6,2.55l-2.65.85-1.21-7.15,2.51-.37A2.35,2.35,0,0,1,346.35,293.85Z" style="fill:#ff8b7b"></path></g><path d="M295.92,244.83a3.85,3.85,0,0,1-2.47-4.2,4.3,4.3,0,0,0-.54,2.87,3.89,3.89,0,0,1-2.9-3.18,2.31,2.31,0,0,0,0,2.05c-1.33-.26-2.7-.89-3.09-2.19-.39.32-.44.89-.05,1.58-1.77-.32-2.68-2.55-2.13-4.27s2-4.24,3.65-5c2.3-1,9.24-.88,10.84,2,.87,1.54,1.64,3.48,1,4.69C299.21,241,295.77,242.76,295.92,244.83Z" style="fill:#263238"></path><path d="M304.91,277.74a20.87,20.87,0,0,0,5.69,16.74,82.57,82.57,0,0,1-1.35-13.68,16,16,0,0,0-4.06-3.67c-.11.13-.22.25-.32.38C305,277.42,304.81,277.83,304.91,277.74Z" style="opacity:0.2;isolation:isolate"></path><path d="M303.86,268.37c-2.55,3-3,6.2-1.74,9.94s3.37,7.87,7.2,8.77a99.37,99.37,0,0,1,8.91-5.75c.42-3.17-1.13-9.11-3.18-11.57S308.08,265.21,303.86,268.37Z" style="fill:#485FC7"></path></g><g id="freepik--characters-1-and-2--inject-94"><path d="M202.71,312.2s1.61,19.34,2,24.14c1.45,19.21,11,76.48,11,76.48l8-.09s-.24-35.74-1-63c-.21-8-2.28-11.89-2.68-14.14-.42-2.44-.11-3.79.54-9.86.31-2.84,1.67-14.76,1.67-14.76Z" style="fill:#cb7a63"></path><path d="M168.32,308.67l-11.83,97.67,8.29,1.81s12.19-36.21,14.8-60.79c.41-3.86.86-8.75,1.29-11.75.35-2.5.72-3.71,2.72-9.55.9-2.61,3.39-10.53,4.49-13.86Z" style="fill:#cb7a63"></path><path d="M151.8,403.84c-1.14-.3-2.25-.82-2.5-1.41a.85.85,0,0,1,.27-.94,1.22,1.22,0,0,1,.82-.32c1.63,0,4.33,2.66,4.44,2.78a.23.23,0,0,1,0,.26.25.25,0,0,1-.22.13A16.15,16.15,0,0,1,151.8,403.84Zm-1-2.16a1.52,1.52,0,0,0-.42-.06.68.68,0,0,0-.51.19c-.23.23-.21.37-.17.46.26.71,2.56,1.34,4.31,1.59A10.37,10.37,0,0,0,150.82,401.68Z" style="fill:#485FC7"></path><path d="M154.62,404.32a.11.11,0,0,1-.08,0c-1-.78-2.63-3.34-2.16-4.32.09-.24.36-.49,1-.39a1.63,1.63,0,0,1,1.1.69c.91,1.27.49,3.8.47,3.91a.2.2,0,0,1-.15.17A.21.21,0,0,1,154.62,404.32ZM153.38,400l-.12,0c-.39-.07-.46.08-.49.13-.22.6.8,2.53,1.75,3.5a5.25,5.25,0,0,0-.46-3.12,1.18,1.18,0,0,0-.68-.47Z" style="fill:#485FC7"></path><path d="M155.93,403.31l10,2.67a.83.83,0,0,1,.61.84l-.38,8.58a1.37,1.37,0,0,1-1.42,1.33,1.35,1.35,0,0,1-.29,0c-3.58-1-6.71-2.08-11.18-3.28-5.28-1.41-4.11-.42-10.33-2-3.75-1-3.29-5.38-1.65-5.16,7.49,1,8.83-1,12.32-2.8A3.37,3.37,0,0,1,155.93,403.31Z" style="fill:#263238"></path><path d="M209.9,407.23c-1.18,0-2.39-.24-2.77-.75a.84.84,0,0,1,0-1,1.15,1.15,0,0,1,.71-.51c1.58-.42,4.86,1.49,5,1.58a.21.21,0,0,1,.11.23.24.24,0,0,1-.18.18A15.66,15.66,0,0,1,209.9,407.23Zm-1.49-1.85a1.58,1.58,0,0,0-.43.05.61.61,0,0,0-.44.31c-.17.28-.11.41,0,.49.43.62,2.82.66,4.58.46A10.24,10.24,0,0,0,208.41,405.38Z" style="fill:#485FC7"></path><path d="M212.75,407a.14.14,0,0,1-.09,0c-1.13-.51-3.37-2.58-3.16-3.64,0-.26.22-.57.84-.62a1.66,1.66,0,0,1,1.24.39c1.19,1,1.42,3.55,1.43,3.67a.25.25,0,0,1-.1.2A.22.22,0,0,1,212.75,407Zm-2.27-3.85h-.13c-.4,0-.43.19-.45.25-.06.64,1.41,2.25,2.58,3a5.31,5.31,0,0,0-1.23-2.91,1.15,1.15,0,0,0-.77-.29Z" style="fill:#485FC7"></path><path d="M213.76,405.68l10.31.1a.85.85,0,0,1,.81.66l1.78,8.4a1.39,1.39,0,0,1-1.06,1.65,1.36,1.36,0,0,1-.29,0c-3.71-.1-7-.34-11.64-.38-5.46-.05-4.08.62-10.5.64-3.87,0-4.53-4.39-2.89-4.59,7.51-.87,8.32-3.13,11.24-5.78A3.31,3.31,0,0,1,213.76,405.68Z" style="fill:#263238"></path><path d="M188.69,312.2c5.2-15.69,12.09-37.76,14.47-51.5L205,235.11l-27.78.31h0a85.4,85.4,0,0,0-5,21.14l-5.38,52.11Z" style="fill:#485FC7"></path><path d="M193.89,267.49l3.67-14.22,6.89,5.07C202.91,266,196.91,286,194,295.6,190.26,281.69,193.89,267.49,193.89,267.49Z" style="opacity:0.2;isolation:isolate"></path><path d="M222.85,311c2.15-22.67,4.53-58.42-.32-71.26l-1.46-6.23-29.61,1.85s0,4,0,5.29c.14,4.8,1.12,19.18,1.12,19.18A35.08,35.08,0,0,0,196,273l2.48,5.18,3.48,34.07Z" style="fill:#485FC7"></path><polygon points="223.87 308.68 200.6 310.38 201.09 314.52 223.87 312.94 223.87 308.68" style="fill:#485FC7"></polygon><polygon points="223.87 308.68 200.6 310.38 201.09 314.52 223.87 312.94 223.87 308.68" style="fill:#fff;opacity:0.30000000000000004"></polygon><polygon points="190.47 310.26 165.67 306 165.15 310.26 188.75 314.43 190.47 310.26" style="fill:#485FC7"></polygon><polygon points="190.47 310.26 165.67 306 165.15 310.26 188.75 314.43 190.47 310.26" style="fill:#fff;opacity:0.30000000000000004"></polygon><path d="M222.84,181.18l18.34,15.09,11.72,27s-.67,3.54-.85,6.1c-.13,1.94-.66,3.27-.22,4.79.53,1.82,4.49,6,4.49,6l5.69-1.66c1.34-.74.18-7.4.18-7.4l-3.93-9.44s-4.24-24.1-7.21-30.06S229,170.58,229,170.58Z" style="fill:#cb7a63"></path><path d="M240.52,179.55s-1.08-1.19-4.36-4.49c-3-3-11.12-9.25-14.12-10.06a5.76,5.76,0,0,0-1.51-.2c-6.68,0-10.8,11.93-6.81,14.29a121.83,121.83,0,0,1,18,11.92Z" style="fill:#263238"></path><path d="M237.67,176.36c-3.07-2.94-11.32-9-14.35-9.72a6.14,6.14,0,0,0-1.51-.17c-1.43,2.73-2.86,5.52-2.87,5.51s-.08,4.11-.08,4.11l4.71-.63S232.89,175,237.67,176.36Z" style="opacity:0.30000000000000004"></path><path d="M217.48,116.13c-.15,1-.29,1.88-.43,2.79-.71,5.1-1.07,9.55-1.22,13.38-.36,9.36.51,15.11.4,18-6.82,2.23-23.78,3.29-29.94-.49-2.21-20.77-1.81-28.87-1-34.26a6.3,6.3,0,0,1,5.08-5.23c1.4-.27,3-.5,4.72-.69a113.81,113.81,0,0,1,13.06,0c1.64.08,3.29.24,4.8.42l.2,0A5.3,5.3,0,0,1,217.48,116.13Z" style="fill:#ff887b"></path><path d="M205.46,99.57c-.34,4-.1,8.68,2.22,10.69a47.2,47.2,0,0,1-12,6.17c-4.13-3.49-1.87-5.89-1.87-5.89,4-1.75,4-4.72,3.08-8L203.1,98C204.13,97.16,205.59,98.1,205.46,99.57Z" style="fill:#ff887b"></path><path d="M205.46,99.57c.13-1.5-1.33-2.41-2.37-1.54l-6.2,4.55a8.59,8.59,0,0,1,.34,4.44,8.54,8.54,0,0,0,4-.45,8.85,8.85,0,0,0,4.14-3A30.82,30.82,0,0,1,205.46,99.57Z" style="opacity:0.2;isolation:isolate"></path><path d="M210.44,92.49c-.86,5.65-1.08,9-4.57,11.66-5.24,4-12.93.72-14-5.13-.94-5.24.66-13.62,7.13-15.35S211.32,86.84,210.44,92.49Z" style="fill:#ff887b"></path><path d="M200.08,91.86c-.14.48-.52.8-.84.7s-.46-.56-.31-1,.52-.81.83-.71S200.22,91.38,200.08,91.86Z" style="fill:#263238"></path><path d="M194.37,91.44c-.15.49-.52.8-.84.71s-.45-.57-.31-1.05.52-.81.83-.71S194.51,91,194.37,91.44Z" style="fill:#263238"></path><path d="M202.41,90.45a.28.28,0,0,1-.24-.19,2.38,2.38,0,0,0-1.55-1.49.28.28,0,0,1-.22-.35h0a.3.3,0,0,1,.35-.23h0a3,3,0,0,1,2,1.86.3.3,0,0,1-.17.39Z" style="fill:#263238"></path><path d="M192.65,88.72a.29.29,0,0,1-.25-.33.24.24,0,0,1,.07-.16,3,3,0,0,1,2.51-1,.28.28,0,0,1,.25.33h0a.29.29,0,0,1-.34.24h0a2.35,2.35,0,0,0-2,.82A.29.29,0,0,1,192.65,88.72Z" style="fill:#263238"></path><path d="M196.42,91.82A15.26,15.26,0,0,1,193.57,95a2.5,2.5,0,0,0,1.93.84Z" style="fill:#ff5652"></path><path d="M210.93,83.64c4.3,4.54,2.48,10.53-1.51,15.08-1.52,1.72-2.29-6-2-8.27a4.17,4.17,0,0,1-4-.19,3.45,3.45,0,0,1-1.27-2,10,10,0,0,1-.26-2.37l-1.69.94a7.49,7.49,0,0,1-1.9.84,2.54,2.54,0,0,1-2-.27,1.67,1.67,0,0,1-.61-1.9,3.46,3.46,0,0,1-3,.06A2.32,2.32,0,0,1,191.46,83a2.6,2.6,0,0,1,1.18-1.41,7.14,7.14,0,0,1,1.75-.68,4.88,4.88,0,0,1,2.45-.2,13,13,0,0,1-2.12-1.36,2.28,2.28,0,0,1-.63-.75.89.89,0,0,1,.07-.92,1.23,1.23,0,0,1,1.12-.29A6.14,6.14,0,0,1,199,79.27a4.36,4.36,0,0,1-.79-1.51,1.09,1.09,0,0,1,.43-1.3c.51-.26,1.12.09,1.56.46A12.51,12.51,0,0,1,203,80.16a2,2,0,0,1,.3-2.28,2.29,2.29,0,0,1,2.14-.44,3.78,3.78,0,0,1,1.84,1.31,11.46,11.46,0,0,1,1.18,2A2.87,2.87,0,0,1,210.93,83.64Z" style="fill:#263238"></path><path d="M211.26,98a4.75,4.75,0,0,1-2.92,1.79c-1.47.2-1.78-1.29-1.05-2.73.66-1.27,2.21-2.9,3.51-2.45S212.19,96.78,211.26,98Z" style="fill:#ff887b"></path><path d="M193.52,97.86a46.46,46.46,0,0,1,7.93-.65c-.69,1.61-2,2.93-5,3S193.52,97.86,193.52,97.86Z" style="fill:#263238"></path><path d="M197.88,98.92a6,6,0,0,0-3.27.86,3.39,3.39,0,0,0,1.87.42,5.92,5.92,0,0,0,3.26-.85A3.36,3.36,0,0,0,197.88,98.92Z" style="fill:#ff5652"></path><path d="M193.79,97.81a1.1,1.1,0,0,0,.91.76,34.6,34.6,0,0,0,5.17-.54,1.7,1.7,0,0,0,1.32-.81A53.88,53.88,0,0,0,193.79,97.81Z" style="fill:#fafafa"></path><path d="M156,121.39l-4-3.12-3.41,6s3.25,2.33,6.7.76Z" style="fill:#ff887b"></path><path d="M146.5,119.38l-.48,1.94a2,2,0,0,0,1.13,2.32l1.42.62,3.4-6-3.3-.37A2,2,0,0,0,146.5,119.38Z" style="fill:#ff887b"></path><path d="M154.24,125.4a51.66,51.66,0,0,0,11.29,1.31c2.82,0,5.72.52,10.86-1.51l11.69-5.44.23-8.55-18.13,8.85-14.67,1.43Z" style="fill:#ff887b"></path><path d="M217.34,117.17c-.71,5.1-1.07,9.54-1.22,13.38-.26-.49-.61-6.5-2.41-16-.06-.28.12-.4.25-.66C215.07,115,216.22,116.07,217.34,117.17Z" style="opacity:0.2;isolation:isolate"></path><path d="M214,111.85l.95-.92,1-1c.66-.66,1.31-1.32,1.95-2,1.28-1.35,2.54-2.76,3.73-4.14S224,101,225,99.49A46.23,46.23,0,0,0,227.84,95l-.15.35a12.37,12.37,0,0,0,.78-2.86c.22-1.13.37-2.38.49-3.63s.25-2.51.36-3.79.2-2.6.33-3.86v-.07c.21-1.21.57-2.48,1.78-2.27a2.22,2.22,0,0,1,1.71,1.42c.4,1.34,2.59,11.36,2.58,12.79A17.05,17.05,0,0,1,235.1,98l0,.13-.1.23a46,46,0,0,1-3,5.74,59.85,59.85,0,0,1-3.62,5.17c-1.27,1.65-2.63,3.22-4,4.73-.71.75-1.43,1.49-2.17,2.22s-1.46,1.41-2.33,2.17a4.34,4.34,0,0,1-5.9-6.38h0Z" style="fill:#ff887b"></path><path d="M229.62,80.88l-1.88-4.55,6.47-1.65s1.34,3.63-1,6.41Z" style="fill:#ff887b"></path><path d="M230,71.32l2.2.16A1.92,1.92,0,0,1,234,73.12l.23,1.56-6.47,1.65.19-3.21a1.93,1.93,0,0,1,2-1.8Z" style="fill:#ff887b"></path><polygon points="185.31 145.31 216.47 144.37 217.72 157.67 198.36 162.2 185.7 157.24 185.31 145.31" style="fill:#485FC7"></polygon><polygon points="185.31 145.31 216.47 144.37 217.72 157.67 198.36 162.2 185.7 157.24 185.31 145.31" style="opacity:0.2"></polygon><path d="M221.61,235.79l2.23-67a3.73,3.73,0,0,0-3.83-4.18l-36.75.85c-6.72,0-6.85,6.3-6.83,9.64l1.31,60.73Z" style="fill:#263238"></path><path d="M197.8,139a.62.62,0,0,0,.48.73c.29,0,.55-.3.56-.7a.63.63,0,0,0-.48-.73A.65.65,0,0,0,197.8,139Z" style="opacity:0.2;isolation:isolate"></path><path d="M143.7,127.8s-3.37,35.41,1.37,39.06S172.48,177,172.48,177l3.1-10.65-20.34-8.16-5-30.08,4-7.24a4,4,0,0,0-.5-4.59l-.54-.61a4,4,0,0,0-4.65-1l-4.26,1.89a4,4,0,0,0-2.27,4.65Z" style="fill:#cb7a63"></path><path d="M182.08,166.7S179.92,178,176,181.28a4.45,4.45,0,0,1-.82.54l-12.6-5.39-3.48-1.49a40.58,40.58,0,0,1,4.59-14.66C169.15,162.08,182.08,166.7,182.08,166.7Z" style="fill:#263238"></path><path d="M176.77,176c-.3.38-.53,3.24-.82,5.28a4.45,4.45,0,0,1-.82.54l-12.6-5.39Z" style="opacity:0.30000000000000004"></path><path d="M166.33,160l-3.66-1s-4.16,3.49-5.22,16.18l3.44,1.18S162.86,165.25,166.33,160Z" style="fill:#263238"></path><path d="M219.2,167.63a15.79,15.79,0,0,0,5.8,15.19c1.21,1,11.91,4.09,12.9-9.66.26-3.64-.31-7.82-2.48-10.9s-6.8-5.06-10.55-3.5C221.42,160.2,219.87,164.3,219.2,167.63Z" style="fill:#485FC7"></path><path d="M219.2,167.63a15.79,15.79,0,0,0,5.8,15.19c1.21,1,11.91,4.09,12.9-9.66.26-3.64-.31-7.82-2.48-10.9s-6.8-5.06-10.55-3.5C221.42,160.2,219.87,164.3,219.2,167.63Z" style="opacity:0.4;isolation:isolate"></path><path d="M206.06,161.32c-1-2.79.38-6,2.53-8s5.2-3.17,8-4.24l17.86,12c-8.66-3.77-12.58,12.12-11.78,19.11C216,171.82,208.6,168.65,206.06,161.32Z" style="fill:#485FC7"></path><path d="M249.41,204.25l-5.85.77-4.9-10.63a19.63,19.63,0,0,0-1.14-2.41c-3.64-6.57-5.56-12.18-5.92-14.78a54,54,0,0,1-8.3-5.49c1.13-5.49,3.93-11.18,8.4-11.13h0c2.58,1.37,7.73,6.24,8.34,7a7.3,7.3,0,0,1,1.77,5Z" style="fill:#ff887b"></path><path d="M243.62,203.8a20.45,20.45,0,0,1,5.84,0s7.06,3,9.48,3.59a2.21,2.21,0,0,1,1.64,2.4,1.27,1.27,0,0,1-.23.55c-.79,1.06-2.85.79-4.19.76-2.27,0-4.55-.86-6.72-.36-6.06,1.4-7-1.84-7-1.84A6.49,6.49,0,0,1,243.62,203.8Z" style="fill:#ff887b"></path><path d="M234.41,161.08a6.39,6.39,0,0,0-2.48-.57h0c-4.67,0-7.6,6.09-8.78,12a26.33,26.33,0,0,0-.51,7.66c-6.63-8.38-14-11.54-16.58-18.88-1-2.78.39-5.95,2.54-8s5.2-3.17,8-4.24Z" style="opacity:0.2"></path><path d="M181.52,167.56c.27,5.62-3.26,10.54-8,14.15-2.77,2.11-12.39,2.26-11.31-11.48.28-3.64,1.47-7.69,4.08-10.41s7.48-4,11-1.87C180.44,159.89,181.36,164.17,181.52,167.56Z" style="fill:#485FC7"></path><path d="M181.52,167.56c.27,5.62-3.26,10.54-8,14.15-2.77,2.11-12.39,2.26-11.31-11.48.28-3.64,1.47-7.69,4.08-10.41s7.48-4,11-1.87C180.44,159.89,181.36,164.17,181.52,167.56Z" style="opacity:0.4;isolation:isolate"></path><path d="M195.46,163.29c1.38-2.62.52-5.95-1.31-8.27s-4.52-5.36-8.7-5.38l-18,9.17c9.12-2.43,10.62,13.86,8.78,20.66C184.06,172.18,191.85,170.15,195.46,163.29Z" style="fill:#485FC7"></path><path d="M195.46,163.29c1.38-2.62.52-5.95-1.31-8.27s-4.52-5.36-8.7-5.38l-18,9.17c9.12-2.43,10.62,13.86,8.78,20.66C184.06,172.18,191.85,170.15,195.46,163.29Z" style="opacity:0.2"></path><path d="M146.56,202.78l5.72,1.67,7.8-13.4a69.75,69.75,0,0,0,7.69-15.8,57.07,57.07,0,0,0,9.13-3.91c-.27-5.82-2.18-12.1-6.64-12.73h0c-2.79,1-8.09,3.48-8.81,4.16a7.81,7.81,0,0,0-2.54,4.83Z" style="fill:#ff887b"></path><path d="M151.92,202.9a20.18,20.18,0,0,0-5.82-.86s-7.51,2-10,2.27a2.29,2.29,0,0,0-2,2.21,1.27,1.27,0,0,0,.14.61c.62,1.21,2.71,1.24,4.05,1.42,2.28.3,4.68-.2,6.77.64,5.82,2.35,7.22-.85,7.22-.85A6.92,6.92,0,0,0,151.92,202.9Z" style="fill:#ff887b"></path><path d="M217.72,147.33c-9.92.33-22.73,1-32.66,1.36,0,0-1.81-17.81-1-25l-6.36,3.07c-2.2-4.62-2-5-3.34-10,0,0,9.07-5.34,14.23-7.2,1.81-.65,3.76.1,5.67-.14.7,2.94,3.73,3.63,6.76,3.62s5.9-.89,6.58-3.84c2.39,0,6.3.26,8.69.23Z" style="fill:#485FC7"></path><path d="M213.91,109.41s5.32-4.39,7.78-6.06a99.38,99.38,0,0,1,7.6,9.52l-12.48,12.39C214,120.7,211,113.9,213.91,109.41Z" style="fill:#485FC7"></path><path d="M194.14,167.35a16.27,16.27,0,0,0,.3-4.4c-.46-5.3-.68-11,1-16a19.42,19.42,0,0,1,5.18-8.6,10.55,10.55,0,0,1,9.4-2.64,10.27,10.27,0,0,1,6.67,6.5l0,.09a10.54,10.54,0,0,1-3.26,11.56,8.85,8.85,0,0,0-2.91,4.18,19.84,19.84,0,0,0-.24,10.78c-2-1.91-5.16-2.38-7.93-2.41A27.06,27.06,0,0,0,194.14,167.35Z" style="opacity:0.2;isolation:isolate"></path><path d="M196.9,177.25c-5.35,0-8.78-2.23-9-4.92a21.87,21.87,0,0,0,6.68-7.32,7.21,7.21,0,0,0,.67-4.46,9.78,9.78,0,0,0-.45-1.87c-.12-.53-.25-1.08-.39-1.67a1.29,1.29,0,0,0,0-.19l7.52-5.27.76-.52,5.7-4c-1.27,4.94-2.32,12.56-.94,18.28.34,1.43,1.22,1,1.22,1C208.92,168.7,208.58,177.22,196.9,177.25Z" style="fill:#cb7a63"></path><path d="M202.87,155.35c-.42,2.8-4.59,5.53-7.58,5.2a9.78,9.78,0,0,0-.45-1.87c-.12-.53-.25-1.08-.39-1.67a1.29,1.29,0,0,0,0-.19h0l7.52-5.26.76-.52A13.06,13.06,0,0,1,202.87,155.35Z" style="opacity:0.1;isolation:isolate"></path><path d="M210.26,141.21c-1.88,7.86-2.59,12.56-7.32,15.9-7.12,5-16.29-.42-16.8-8.71-.45-7.46,2.7-19.07,11-20.81a11.16,11.16,0,0,1,13.18,8.65A11.27,11.27,0,0,1,210.26,141.21Z" style="fill:#cb7a63"></path><path d="M209.12,146c-1.26,5.09-2.51,8.51-6.18,11.1-7.11,5-16.29-.42-16.8-8.71a26.53,26.53,0,0,1,.06-3.76c.29.3.68,1.59,1.05,1.77,1.1.55,3.22-1.24,4.44-1.28C195,145,198,146.72,201,147,203.87,147.32,206.17,146.24,209.12,146Z" style="opacity:0.2"></path><path d="M193.12,139.08a23.33,23.33,0,0,1-4.06,5,3.79,3.79,0,0,0,3,1.15Z" style="fill:#a24e3f"></path><path d="M199.14,140.59c-.09.6-.51,1-.9,1s-.63-.59-.54-1.19.51-1.06.91-1S199.25,140,199.14,140.59Z" style="fill:#2e353a"></path><path d="M191.67,139.27c-.1.6-.5,1-.9,1s-.63-.59-.54-1.2.51-1.05.91-1S191.78,138.65,191.67,139.27Z" style="fill:#2e353a"></path><path d="M200.64,138.06a.28.28,0,0,0,.18,0,.36.36,0,0,0,.16-.47v0a3.5,3.5,0,0,0-2.66-1.92.37.37,0,0,0-.39.33h0a.35.35,0,0,0,.33.38h0a2.8,2.8,0,0,1,2.08,1.49A.33.33,0,0,0,200.64,138.06Z" style="fill:#2e353a"></path><path d="M188.72,136.32a.37.37,0,0,0,.3-.16,3,3,0,0,1,2.3-1.34.36.36,0,0,0,.3-.42.39.39,0,0,0-.3-.3h0a3.73,3.73,0,0,0-2.88,1.65.36.36,0,0,0,.08.5h0A.32.32,0,0,0,188.72,136.32Z" style="fill:#2e353a"></path><path d="M190.58,148.92a52.23,52.23,0,0,1,8.88.27c-1,1.7-2.55,3-5.89,2.7S190.58,148.92,190.58,148.92Z" style="fill:#2e353a"></path><path d="M195.28,150.64a6.74,6.74,0,0,0-3.73.54,3.79,3.79,0,0,0,2,.71,6.74,6.74,0,0,0,3.73-.54A3.69,3.69,0,0,0,195.28,150.64Z" style="fill:#de5753"></path><path d="M190.89,148.89a1.23,1.23,0,0,0,.91,1,37.44,37.44,0,0,0,5.8.05,1.91,1.91,0,0,0,1.57-.73A58.72,58.72,0,0,0,190.89,148.89Z" style="fill:#fff"></path><path d="M206.91,151.26s-3-9.86,1.34-15.61c0,0-4,1.45-3.66-3.06,0,0-10.33-.81-7.63-3,0,0-8.94,4.63-7.9,1.29a9.17,9.17,0,0,1,4.37-4.94s-4.46.1-3.62-2.16c1.07-2.89,6.62-.53,6.62-.53s-3.38-1.75-1.4-2.91c2.4-1.4,7.33,3.66,7.33,3.66s1.66-5.59,6.69,2c0,0,5.61,1.62,4.46,8.61C213.51,134.63,215.54,141.49,206.91,151.26Z" style="fill:#263238"></path><path d="M213.06,148.88a7.64,7.64,0,0,1-5.12,2.85c-2.68.28-3.59-2.23-2.5-4.53,1-2.08,3.58-4.7,6.11-3.92S214.58,146.92,213.06,148.88Z" style="fill:#cb7a63"></path></g></svg>