<svg xmlns="http://www.w3.org/2000/svg" viewBox="0 0 500 500"><g id="freepik--background-complete--inject-177"><rect y="382.4" width="500" height="0.25" style="fill:#ebebeb"></rect><rect x="416.78" y="398.49" width="33.12" height="0.25" style="fill:#ebebeb"></rect><rect x="322.53" y="401.21" width="8.69" height="0.25" style="fill:#ebebeb"></rect><rect x="396.59" y="389.21" width="19.19" height="0.25" style="fill:#ebebeb"></rect><rect x="52.46" y="390.89" width="43.19" height="0.25" style="fill:#ebebeb"></rect><rect x="104.56" y="390.89" width="6.33" height="0.25" style="fill:#ebebeb"></rect><rect x="131.47" y="395.11" width="93.68" height="0.25" style="fill:#ebebeb"></rect><path d="M237,337.8H43.91a5.71,5.71,0,0,1-5.7-5.71V60.66A5.71,5.71,0,0,1,43.91,55H237a5.71,5.71,0,0,1,5.71,5.71V332.09A5.71,5.71,0,0,1,237,337.8ZM43.91,55.2a5.46,5.46,0,0,0-5.45,5.46V332.09a5.46,5.46,0,0,0,5.45,5.46H237a5.47,5.47,0,0,0,5.46-5.46V60.66A5.47,5.47,0,0,0,237,55.2Z" style="fill:#ebebeb"></path><path d="M453.31,337.8H260.21a5.72,5.72,0,0,1-5.71-5.71V60.66A5.72,5.72,0,0,1,260.21,55h193.1A5.71,5.71,0,0,1,459,60.66V332.09A5.71,5.71,0,0,1,453.31,337.8ZM260.21,55.2a5.47,5.47,0,0,0-5.46,5.46V332.09a5.47,5.47,0,0,0,5.46,5.46h193.1a5.47,5.47,0,0,0,5.46-5.46V60.66a5.47,5.47,0,0,0-5.46-5.46Z" style="fill:#ebebeb"></path><rect x="254.39" y="120.71" width="169.52" height="189.92" style="fill:#ebebeb"></rect><rect x="254.39" y="123.77" width="166.19" height="183.49" style="fill:#fafafa"></rect><polygon points="414.44 221.17 414.44 208.28 410.75 208.28 410.75 199.68 405.84 199.68 405.84 186.79 404.62 186.79 404.62 199.68 399.7 199.68 399.7 208.28 396.02 208.28 396.02 221.17 389.27 221.17 389.27 224.85 386.2 224.85 386.2 238.97 385.58 238.97 385.58 218.71 383.74 218.71 383.74 231.6 381.9 231.6 381.9 200.91 380.67 200.91 380.67 213.8 375.76 213.8 375.76 209.5 373.92 209.5 373.92 191.7 370.24 191.7 370.24 173.9 369.01 173.9 369.01 176.35 343.84 176.35 343.84 168.99 339.54 168.99 339.54 140.75 337.7 140.75 337.7 168.99 331.56 168.99 331.56 176.35 329.11 176.35 329.11 213.19 316.21 213.19 316.21 202.14 320.51 202.14 320.51 200.29 316.21 200.29 316.21 197.22 303.94 197.22 303.94 168.99 300.87 168.99 300.87 164.69 286.13 164.69 286.13 168.99 284.29 168.99 284.29 208.28 277.54 208.28 277.54 226.08 273.85 226.08 273.85 211.96 270.78 211.96 270.78 208.28 264.03 208.28 264.03 195.38 260.35 195.38 260.35 186.79 256.05 186.79 256.05 173.9 254.39 173.9 254.39 307.26 420.58 307.26 420.58 221.17 414.44 221.17" style="fill:#f0f0f0"></polygon><rect x="353.24" y="178.28" width="1.74" height="1.74" style="fill:#fafafa"></rect><rect x="353.24" y="181.19" width="1.74" height="1.74" style="fill:#fafafa"></rect><rect x="353.24" y="192.86" width="1.74" height="1.74" style="fill:#fafafa"></rect><rect x="353.24" y="195.77" width="1.74" height="1.74" style="fill:#fafafa"></rect><rect x="353.24" y="198.69" width="1.74" height="1.74" style="fill:#fafafa"></rect><rect x="353.24" y="207.44" width="1.74" height="1.74" style="fill:#fafafa"></rect><rect x="353.24" y="210.35" width="1.74" height="1.74" style="fill:#fafafa"></rect><rect x="350.48" y="189.94" width="1.74" height="1.74" style="fill:#fafafa"></rect><rect x="350.48" y="192.86" width="1.74" height="1.74" style="fill:#fafafa"></rect><rect x="350.48" y="195.77" width="1.74" height="1.74" style="fill:#fafafa"></rect><rect x="350.48" y="198.69" width="1.74" height="1.74" style="fill:#fafafa"></rect><rect x="350.48" y="201.61" width="1.74" height="1.74" style="fill:#fafafa"></rect><rect x="350.48" y="207.44" width="1.74" height="1.74" style="fill:#fafafa"></rect><rect x="350.48" y="210.35" width="1.74" height="1.74" style="fill:#fafafa"></rect><rect x="347.71" y="178.28" width="1.74" height="1.74" style="fill:#fafafa"></rect><rect x="347.71" y="181.19" width="1.74" height="1.74" style="fill:#fafafa"></rect><rect x="347.71" y="184.11" width="1.74" height="1.74" style="fill:#fafafa"></rect><rect x="347.71" y="187.03" width="1.74" height="1.74" style="fill:#fafafa"></rect><rect x="347.71" y="189.94" width="1.74" height="1.74" style="fill:#fafafa"></rect><rect x="347.71" y="192.86" width="1.74" height="1.74" style="fill:#fafafa"></rect><rect x="347.71" y="195.77" width="1.74" height="1.74" style="fill:#fafafa"></rect><rect x="347.71" y="198.69" width="1.74" height="1.74" style="fill:#fafafa"></rect><rect x="347.71" y="201.61" width="1.74" height="1.74" style="fill:#fafafa"></rect><rect x="347.71" y="204.52" width="1.74" height="1.74" style="fill:#fafafa"></rect><rect x="347.71" y="210.35" width="1.74" height="1.74" style="fill:#fafafa"></rect><rect x="344.95" y="178.28" width="1.74" height="1.74" style="fill:#fafafa"></rect><rect x="344.95" y="181.19" width="1.74" height="1.74" style="fill:#fafafa"></rect><rect x="344.95" y="184.11" width="1.74" height="1.74" style="fill:#fafafa"></rect><rect x="344.95" y="187.03" width="1.74" height="1.74" style="fill:#fafafa"></rect><rect x="344.95" y="189.94" width="1.74" height="1.74" style="fill:#fafafa"></rect><rect x="344.95" y="192.86" width="1.74" height="1.74" style="fill:#fafafa"></rect><rect x="344.95" y="195.77" width="1.74" height="1.74" style="fill:#fafafa"></rect><rect x="344.95" y="222.02" width="1.74" height="1.74" style="fill:#fafafa"></rect><rect x="342.19" y="178.28" width="1.74" height="1.74" style="fill:#fafafa"></rect><rect x="342.19" y="181.19" width="1.74" height="1.74" style="fill:#fafafa"></rect><rect x="342.19" y="184.11" width="1.74" height="1.74" style="fill:#fafafa"></rect><rect x="342.19" y="187.03" width="1.74" height="1.74" style="fill:#fafafa"></rect><rect x="342.19" y="189.94" width="1.74" height="1.74" style="fill:#fafafa"></rect><rect x="342.19" y="192.86" width="1.74" height="1.74" style="fill:#fafafa"></rect><rect x="342.19" y="195.77" width="1.74" height="1.74" style="fill:#fafafa"></rect><rect x="342.19" y="198.69" width="1.74" height="1.74" style="fill:#fafafa"></rect><rect x="342.19" y="216.19" width="1.74" height="1.74" style="fill:#fafafa"></rect><rect x="342.19" y="219.1" width="1.74" height="1.74" style="fill:#fafafa"></rect><rect x="342.19" y="222.02" width="1.74" height="1.74" style="fill:#fafafa"></rect><rect x="342.19" y="224.93" width="1.74" height="1.74" style="fill:#fafafa"></rect><rect x="342.19" y="236.6" width="1.74" height="1.74" style="fill:#fafafa"></rect><rect x="339.43" y="178.28" width="1.74" height="1.74" style="fill:#fafafa"></rect><rect x="339.43" y="181.19" width="1.74" height="1.74" style="fill:#fafafa"></rect><rect x="339.43" y="184.11" width="1.74" height="1.74" style="fill:#fafafa"></rect><rect x="339.43" y="187.03" width="1.74" height="1.74" style="fill:#fafafa"></rect><rect x="339.43" y="189.94" width="1.74" height="1.74" style="fill:#fafafa"></rect><rect x="339.43" y="192.86" width="1.74" height="1.74" style="fill:#fafafa"></rect><rect x="339.43" y="195.77" width="1.74" height="1.74" style="fill:#fafafa"></rect><rect x="339.43" y="198.69" width="1.74" height="1.74" style="fill:#fafafa"></rect><rect x="339.43" y="201.61" width="1.74" height="1.74" style="fill:#fafafa"></rect><rect x="339.43" y="204.52" width="1.74" height="1.74" style="fill:#fafafa"></rect><rect x="339.43" y="213.27" width="1.74" height="1.74" style="fill:#fafafa"></rect><rect x="339.43" y="216.19" width="1.74" height="1.74" style="fill:#fafafa"></rect><rect x="339.43" y="219.1" width="1.74" height="1.74" style="fill:#fafafa"></rect><rect x="339.43" y="222.02" width="1.74" height="1.74" style="fill:#fafafa"></rect><rect x="339.43" y="224.93" width="1.74" height="1.74" style="fill:#fafafa"></rect><rect x="339.43" y="236.6" width="1.74" height="1.74" style="fill:#fafafa"></rect><rect x="336.66" y="178.28" width="1.74" height="1.74" style="fill:#fafafa"></rect><rect x="336.66" y="181.19" width="1.74" height="1.74" style="fill:#fafafa"></rect><rect x="336.66" y="184.11" width="1.74" height="1.74" style="fill:#fafafa"></rect><rect x="336.66" y="187.03" width="1.74" height="1.74" style="fill:#fafafa"></rect><rect x="336.66" y="189.94" width="1.74" height="1.74" style="fill:#fafafa"></rect><rect x="336.66" y="192.86" width="1.74" height="1.74" style="fill:#fafafa"></rect><rect x="336.66" y="195.77" width="1.74" height="1.74" style="fill:#fafafa"></rect><rect x="336.66" y="198.69" width="1.74" height="1.74" style="fill:#fafafa"></rect><rect x="336.66" y="201.61" width="1.74" height="1.74" style="fill:#fafafa"></rect><rect x="336.66" y="204.52" width="1.74" height="1.74" style="fill:#fafafa"></rect><rect x="336.66" y="207.44" width="1.74" height="1.74" style="fill:#fafafa"></rect><rect x="336.66" y="210.35" width="1.74" height="1.74" style="fill:#fafafa"></rect><rect x="336.66" y="213.27" width="1.74" height="1.74" style="fill:#fafafa"></rect><rect x="336.66" y="216.19" width="1.74" height="1.74" style="fill:#fafafa"></rect><rect x="336.66" y="219.1" width="1.74" height="1.74" style="fill:#fafafa"></rect><rect x="336.66" y="222.02" width="1.74" height="1.74" style="fill:#fafafa"></rect><rect x="336.66" y="224.93" width="1.74" height="1.74" style="fill:#fafafa"></rect><rect x="336.66" y="227.85" width="1.74" height="1.74" style="fill:#fafafa"></rect><rect x="333.9" y="178.28" width="1.74" height="1.74" style="fill:#fafafa"></rect><rect x="333.9" y="181.19" width="1.74" height="1.74" style="fill:#fafafa"></rect><rect x="333.9" y="184.11" width="1.74" height="1.74" style="fill:#fafafa"></rect><rect x="333.9" y="187.03" width="1.74" height="1.74" style="fill:#fafafa"></rect><rect x="333.9" y="189.94" width="1.74" height="1.74" style="fill:#fafafa"></rect><rect x="333.9" y="192.86" width="1.74" height="1.74" style="fill:#fafafa"></rect><rect x="333.9" y="195.77" width="1.74" height="1.74" style="fill:#fafafa"></rect><rect x="333.9" y="198.69" width="1.74" height="1.74" style="fill:#fafafa"></rect><rect x="333.9" y="201.61" width="1.74" height="1.74" style="fill:#fafafa"></rect><rect x="333.9" y="204.52" width="1.74" height="1.74" style="fill:#fafafa"></rect><rect x="333.9" y="213.27" width="1.74" height="1.74" style="fill:#fafafa"></rect><rect x="333.9" y="216.19" width="1.74" height="1.74" style="fill:#fafafa"></rect><rect x="333.9" y="219.1" width="1.74" height="1.74" style="fill:#fafafa"></rect><rect x="333.9" y="222.02" width="1.74" height="1.74" style="fill:#fafafa"></rect><rect x="331.14" y="178.28" width="1.74" height="1.74" style="fill:#fafafa"></rect><rect x="331.14" y="181.19" width="1.74" height="1.74" style="fill:#fafafa"></rect><rect x="331.14" y="184.11" width="1.74" height="1.74" style="fill:#fafafa"></rect><rect x="331.14" y="187.03" width="1.74" height="1.74" style="fill:#fafafa"></rect><rect x="331.14" y="189.94" width="1.74" height="1.74" style="fill:#fafafa"></rect><rect x="331.14" y="192.86" width="1.74" height="1.74" style="fill:#fafafa"></rect><rect x="331.14" y="195.77" width="1.74" height="1.74" style="fill:#fafafa"></rect><rect x="331.14" y="198.69" width="1.74" height="1.74" style="fill:#fafafa"></rect><rect x="331.14" y="201.61" width="1.74" height="1.74" style="fill:#fafafa"></rect><rect x="331.14" y="204.52" width="1.74" height="1.74" style="fill:#fafafa"></rect><rect x="331.14" y="213.27" width="1.74" height="1.74" style="fill:#fafafa"></rect><rect x="331.14" y="216.19" width="1.74" height="1.74" style="fill:#fafafa"></rect><rect x="331.14" y="219.1" width="1.74" height="1.74" style="fill:#fafafa"></rect><rect x="300.03" y="170.71" width="1.74" height="1.74" style="fill:#fafafa"></rect><rect x="300.03" y="173.62" width="1.74" height="1.74" style="fill:#fafafa"></rect><rect x="300.03" y="176.54" width="1.74" height="1.74" style="fill:#fafafa"></rect><rect x="300.03" y="179.45" width="1.74" height="1.74" style="fill:#fafafa"></rect><rect x="300.03" y="182.37" width="1.74" height="1.74" style="fill:#fafafa"></rect><rect x="300.03" y="185.29" width="1.74" height="1.74" style="fill:#fafafa"></rect><rect x="300.03" y="188.2" width="1.74" height="1.74" style="fill:#fafafa"></rect><rect x="300.03" y="191.12" width="1.74" height="1.74" style="fill:#fafafa"></rect><rect x="300.03" y="199.87" width="1.74" height="1.74" style="fill:#fafafa"></rect><rect x="300.03" y="202.78" width="1.74" height="1.74" style="fill:#fafafa"></rect><rect x="297.27" y="170.71" width="1.74" height="1.74" style="fill:#fafafa"></rect><rect x="297.27" y="173.62" width="1.74" height="1.74" style="fill:#fafafa"></rect><rect x="297.27" y="176.54" width="1.74" height="1.74" style="fill:#fafafa"></rect><rect x="297.27" y="179.45" width="1.74" height="1.74" style="fill:#fafafa"></rect><rect x="297.27" y="182.37" width="1.74" height="1.74" style="fill:#fafafa"></rect><rect x="297.27" y="185.29" width="1.74" height="1.74" style="fill:#fafafa"></rect><rect x="297.27" y="188.2" width="1.74" height="1.74" style="fill:#fafafa"></rect><rect x="297.27" y="191.12" width="1.74" height="1.74" style="fill:#fafafa"></rect><rect x="297.27" y="202.78" width="1.74" height="1.74" style="fill:#fafafa"></rect><rect x="294.51" y="170.71" width="1.74" height="1.74" style="fill:#fafafa"></rect><rect x="294.51" y="173.62" width="1.74" height="1.74" style="fill:#fafafa"></rect><rect x="294.51" y="176.54" width="1.74" height="1.74" style="fill:#fafafa"></rect><rect x="294.51" y="179.45" width="1.74" height="1.74" style="fill:#fafafa"></rect><rect x="294.51" y="182.37" width="1.74" height="1.74" style="fill:#fafafa"></rect><rect x="294.51" y="185.29" width="1.74" height="1.74" style="fill:#fafafa"></rect><rect x="294.51" y="188.2" width="1.74" height="1.74" style="fill:#fafafa"></rect><rect x="294.51" y="191.12" width="1.74" height="1.74" style="fill:#fafafa"></rect><rect x="291.75" y="170.71" width="1.74" height="1.74" style="fill:#fafafa"></rect><rect x="291.75" y="173.62" width="1.74" height="1.74" style="fill:#fafafa"></rect><rect x="291.75" y="176.54" width="1.74" height="1.74" style="fill:#fafafa"></rect><rect x="291.75" y="179.45" width="1.74" height="1.74" style="fill:#fafafa"></rect><rect x="291.75" y="182.37" width="1.74" height="1.74" style="fill:#fafafa"></rect><rect x="291.75" y="185.29" width="1.74" height="1.74" style="fill:#fafafa"></rect><rect x="291.75" y="191.12" width="1.74" height="1.74" style="fill:#fafafa"></rect><rect x="291.75" y="194.03" width="1.74" height="1.74" style="fill:#fafafa"></rect><rect x="291.75" y="202.78" width="1.74" height="1.74" style="fill:#fafafa"></rect><rect x="291.75" y="205.7" width="1.74" height="1.74" style="fill:#fafafa"></rect><rect x="291.75" y="208.61" width="1.74" height="1.74" style="fill:#fafafa"></rect><rect x="291.75" y="211.53" width="1.74" height="1.74" style="fill:#fafafa"></rect><rect x="291.75" y="214.45" width="1.74" height="1.74" style="fill:#fafafa"></rect><rect x="291.75" y="217.36" width="1.74" height="1.74" style="fill:#fafafa"></rect><rect x="291.75" y="220.28" width="1.74" height="1.74" style="fill:#fafafa"></rect><rect x="288.98" y="170.71" width="1.74" height="1.74" style="fill:#fafafa"></rect><rect x="288.98" y="173.62" width="1.74" height="1.74" style="fill:#fafafa"></rect><rect x="288.98" y="176.54" width="1.74" height="1.74" style="fill:#fafafa"></rect><rect x="288.98" y="179.45" width="1.74" height="1.74" style="fill:#fafafa"></rect><rect x="288.98" y="182.37" width="1.74" height="1.74" style="fill:#fafafa"></rect><rect x="288.98" y="185.29" width="1.74" height="1.74" style="fill:#fafafa"></rect><rect x="288.98" y="194.03" width="1.74" height="1.74" style="fill:#fafafa"></rect><rect x="288.98" y="196.95" width="1.74" height="1.74" style="fill:#fafafa"></rect><rect x="288.98" y="199.87" width="1.74" height="1.74" style="fill:#fafafa"></rect><rect x="288.98" y="202.78" width="1.74" height="1.74" style="fill:#fafafa"></rect><rect x="288.98" y="205.7" width="1.74" height="1.74" style="fill:#fafafa"></rect><rect x="288.98" y="208.61" width="1.74" height="1.74" style="fill:#fafafa"></rect><rect x="288.98" y="211.53" width="1.74" height="1.74" style="fill:#fafafa"></rect><rect x="288.98" y="214.45" width="1.74" height="1.74" style="fill:#fafafa"></rect><rect x="288.98" y="217.36" width="1.74" height="1.74" style="fill:#fafafa"></rect><rect x="288.98" y="220.28" width="1.74" height="1.74" style="fill:#fafafa"></rect><rect x="288.98" y="223.19" width="1.74" height="1.74" style="fill:#fafafa"></rect><rect x="288.98" y="229.03" width="1.74" height="1.74" style="fill:#fafafa"></rect><rect x="286.22" y="170.71" width="1.74" height="1.74" style="fill:#fafafa"></rect><rect x="286.22" y="173.62" width="1.74" height="1.74" style="fill:#fafafa"></rect><rect x="286.22" y="176.54" width="1.74" height="1.74" style="fill:#fafafa"></rect><rect x="286.22" y="179.45" width="1.74" height="1.74" style="fill:#fafafa"></rect><rect x="286.22" y="182.37" width="1.74" height="1.74" style="fill:#fafafa"></rect><rect x="286.22" y="185.29" width="1.74" height="1.74" style="fill:#fafafa"></rect><rect x="286.22" y="194.03" width="1.74" height="1.74" style="fill:#fafafa"></rect><rect x="286.22" y="196.95" width="1.74" height="1.74" style="fill:#fafafa"></rect><rect x="286.22" y="199.87" width="1.74" height="1.74" style="fill:#fafafa"></rect><rect x="286.22" y="202.78" width="1.74" height="1.74" style="fill:#fafafa"></rect><rect x="286.22" y="211.53" width="1.74" height="1.74" style="fill:#fafafa"></rect><rect x="286.22" y="214.45" width="1.74" height="1.74" style="fill:#fafafa"></rect><rect x="286.22" y="217.36" width="1.74" height="1.74" style="fill:#fafafa"></rect><rect x="286.22" y="220.28" width="1.74" height="1.74" style="fill:#fafafa"></rect><rect x="286.22" y="223.19" width="1.74" height="1.74" style="fill:#fafafa"></rect><rect x="286.22" y="229.03" width="1.74" height="1.74" style="fill:#fafafa"></rect><rect x="286.22" y="231.94" width="1.74" height="1.74" style="fill:#fafafa"></rect><rect x="261.15" y="197.82" width="1.74" height="1.74" style="fill:#fafafa"></rect><rect x="261.15" y="200.74" width="1.74" height="1.74" style="fill:#fafafa"></rect><rect x="261.15" y="203.65" width="1.74" height="1.74" style="fill:#fafafa"></rect><rect x="261.15" y="206.57" width="1.74" height="1.74" style="fill:#fafafa"></rect><rect x="261.15" y="209.48" width="1.74" height="1.74" style="fill:#fafafa"></rect><rect x="261.15" y="212.4" width="1.74" height="1.74" style="fill:#fafafa"></rect><rect x="261.15" y="215.32" width="1.74" height="1.74" style="fill:#fafafa"></rect><rect x="261.15" y="224.06" width="1.74" height="1.74" style="fill:#fafafa"></rect><rect x="261.15" y="226.98" width="1.74" height="1.74" style="fill:#fafafa"></rect><rect x="261.15" y="229.9" width="1.74" height="1.74" style="fill:#fafafa"></rect><rect x="258.39" y="197.82" width="1.74" height="1.74" style="fill:#fafafa"></rect><rect x="258.39" y="200.74" width="1.74" height="1.74" style="fill:#fafafa"></rect><rect x="258.39" y="203.65" width="1.74" height="1.74" style="fill:#fafafa"></rect><rect x="258.39" y="206.57" width="1.74" height="1.74" style="fill:#fafafa"></rect><rect x="258.39" y="209.48" width="1.74" height="1.74" style="fill:#fafafa"></rect><rect x="258.39" y="212.4" width="1.74" height="1.74" style="fill:#fafafa"></rect><rect x="258.39" y="215.32" width="1.74" height="1.74" style="fill:#fafafa"></rect><rect x="254.87" y="197.82" width="2.5" height="1.74" style="fill:#fafafa"></rect><rect x="254.87" y="200.74" width="2.5" height="1.74" style="fill:#fafafa"></rect><rect x="254.87" y="203.65" width="2.5" height="1.74" style="fill:#fafafa"></rect><rect x="254.87" y="206.57" width="2.5" height="1.74" style="fill:#fafafa"></rect><rect x="254.87" y="209.48" width="2.5" height="1.74" style="fill:#fafafa"></rect><rect x="254.87" y="212.4" width="2.5" height="1.74" style="fill:#fafafa"></rect><rect x="254.87" y="215.32" width="2.5" height="1.74" style="fill:#fafafa"></rect><rect x="407.57" y="201.61" width="1.74" height="1.74" style="fill:#fafafa"></rect><rect x="407.57" y="204.52" width="1.74" height="1.74" style="fill:#fafafa"></rect><rect x="407.57" y="207.44" width="1.74" height="1.74" style="fill:#fafafa"></rect><rect x="407.57" y="210.35" width="1.74" height="1.74" style="fill:#fafafa"></rect><rect x="407.57" y="213.27" width="1.74" height="1.74" style="fill:#fafafa"></rect><rect x="407.57" y="216.19" width="1.74" height="1.74" style="fill:#fafafa"></rect><rect x="407.57" y="219.1" width="1.74" height="1.74" style="fill:#fafafa"></rect><rect x="407.57" y="222.02" width="1.74" height="1.74" style="fill:#fafafa"></rect><rect x="407.57" y="224.93" width="1.74" height="1.74" style="fill:#fafafa"></rect><rect x="407.57" y="227.85" width="1.74" height="1.74" style="fill:#fafafa"></rect><rect x="407.57" y="230.77" width="1.74" height="1.74" style="fill:#fafafa"></rect><rect x="407.57" y="233.68" width="1.74" height="1.74" style="fill:#fafafa"></rect><rect x="407.57" y="236.6" width="1.74" height="1.74" style="fill:#fafafa"></rect><rect x="407.57" y="239.51" width="1.74" height="1.74" style="fill:#fafafa"></rect><rect x="407.57" y="242.43" width="1.74" height="1.74" style="fill:#fafafa"></rect><rect x="407.57" y="245.35" width="1.74" height="1.74" style="fill:#fafafa"></rect><rect x="407.57" y="248.26" width="1.74" height="1.74" style="fill:#fafafa"></rect><rect x="407.57" y="251.18" width="1.74" height="1.74" style="fill:#fafafa"></rect><rect x="407.57" y="254.09" width="1.74" height="1.74" style="fill:#fafafa"></rect><rect x="407.57" y="257.01" width="1.74" height="1.74" style="fill:#fafafa"></rect><rect x="404.81" y="201.61" width="1.74" height="1.74" style="fill:#fafafa"></rect><rect x="404.81" y="204.52" width="1.74" height="1.74" style="fill:#fafafa"></rect><rect x="404.81" y="207.44" width="1.74" height="1.74" style="fill:#fafafa"></rect><rect x="404.81" y="210.35" width="1.74" height="1.74" style="fill:#fafafa"></rect><rect x="404.81" y="213.27" width="1.74" height="1.74" style="fill:#fafafa"></rect><rect x="404.81" y="216.19" width="1.74" height="1.74" style="fill:#fafafa"></rect><rect x="404.81" y="219.1" width="1.74" height="1.74" style="fill:#fafafa"></rect><rect x="404.81" y="222.02" width="1.74" height="1.74" style="fill:#fafafa"></rect><rect x="404.81" y="224.93" width="1.74" height="1.74" style="fill:#fafafa"></rect><rect x="404.81" y="227.85" width="1.74" height="1.74" style="fill:#fafafa"></rect><rect x="404.81" y="230.77" width="1.74" height="1.74" style="fill:#fafafa"></rect><rect x="404.81" y="233.68" width="1.74" height="1.74" style="fill:#fafafa"></rect><rect x="404.81" y="236.6" width="1.74" height="1.74" style="fill:#fafafa"></rect><rect x="404.81" y="239.51" width="1.74" height="1.74" style="fill:#fafafa"></rect><rect x="404.81" y="242.43" width="1.74" height="1.74" style="fill:#fafafa"></rect><rect x="404.81" y="245.35" width="1.74" height="1.74" style="fill:#fafafa"></rect><rect x="404.81" y="248.26" width="1.74" height="1.74" style="fill:#fafafa"></rect><rect x="404.81" y="251.18" width="1.74" height="1.74" style="fill:#fafafa"></rect><rect x="402.04" y="201.61" width="1.74" height="1.74" style="fill:#fafafa"></rect><rect x="402.04" y="204.52" width="1.74" height="1.74" style="fill:#fafafa"></rect><rect x="402.04" y="207.44" width="1.74" height="1.74" style="fill:#fafafa"></rect><rect x="402.04" y="210.35" width="1.74" height="1.74" style="fill:#fafafa"></rect><rect x="402.04" y="213.27" width="1.74" height="1.74" style="fill:#fafafa"></rect><rect x="402.04" y="216.19" width="1.74" height="1.74" style="fill:#fafafa"></rect><rect x="402.04" y="219.1" width="1.74" height="1.74" style="fill:#fafafa"></rect><rect x="402.04" y="222.02" width="1.74" height="1.74" style="fill:#fafafa"></rect><rect x="402.04" y="224.93" width="1.74" height="1.74" style="fill:#fafafa"></rect><rect x="402.04" y="227.85" width="1.74" height="1.74" style="fill:#fafafa"></rect><rect x="402.04" y="230.77" width="1.74" height="1.74" style="fill:#fafafa"></rect><rect x="402.04" y="233.68" width="1.74" height="1.74" style="fill:#fafafa"></rect><rect x="402.04" y="236.6" width="1.74" height="1.74" style="fill:#fafafa"></rect><rect x="402.04" y="239.51" width="1.74" height="1.74" style="fill:#fafafa"></rect><rect x="402.04" y="242.43" width="1.74" height="1.74" style="fill:#fafafa"></rect><rect x="402.04" y="245.35" width="1.74" height="1.74" style="fill:#fafafa"></rect><rect x="402.04" y="248.26" width="1.74" height="1.74" style="fill:#fafafa"></rect><rect x="402.04" y="251.18" width="1.74" height="1.74" style="fill:#fafafa"></rect><rect x="417.9" y="222.89" width="1.74" height="1.74" style="fill:#fafafa"></rect><rect x="417.9" y="225.8" width="1.74" height="1.74" style="fill:#fafafa"></rect><rect x="417.9" y="228.72" width="1.74" height="1.74" style="fill:#fafafa"></rect><rect x="417.9" y="231.64" width="1.74" height="1.74" style="fill:#fafafa"></rect><rect x="417.9" y="234.55" width="1.74" height="1.74" style="fill:#fafafa"></rect><rect x="417.9" y="237.47" width="1.74" height="1.74" style="fill:#fafafa"></rect><rect x="417.9" y="240.38" width="1.74" height="1.74" style="fill:#fafafa"></rect><rect x="417.9" y="243.3" width="1.74" height="1.74" style="fill:#fafafa"></rect><rect x="417.9" y="246.22" width="1.74" height="1.74" style="fill:#fafafa"></rect><rect x="417.9" y="249.13" width="1.74" height="1.74" style="fill:#fafafa"></rect><rect x="417.9" y="252.05" width="1.74" height="1.74" style="fill:#fafafa"></rect><rect x="417.9" y="254.96" width="1.74" height="1.74" style="fill:#fafafa"></rect><rect x="417.9" y="257.88" width="1.74" height="1.74" style="fill:#fafafa"></rect><rect x="415.14" y="222.89" width="1.74" height="1.74" style="fill:#fafafa"></rect><rect x="415.14" y="225.8" width="1.74" height="1.74" style="fill:#fafafa"></rect><rect x="415.14" y="228.72" width="1.74" height="1.74" style="fill:#fafafa"></rect><rect x="415.14" y="231.64" width="1.74" height="1.74" style="fill:#fafafa"></rect><rect x="415.14" y="234.55" width="1.74" height="1.74" style="fill:#fafafa"></rect><rect x="415.14" y="237.47" width="1.74" height="1.74" style="fill:#fafafa"></rect><rect x="415.14" y="240.38" width="1.74" height="1.74" style="fill:#fafafa"></rect><rect x="415.14" y="243.3" width="1.74" height="1.74" style="fill:#fafafa"></rect><rect x="415.14" y="246.22" width="1.74" height="1.74" style="fill:#fafafa"></rect><rect x="415.14" y="249.13" width="1.74" height="1.74" style="fill:#fafafa"></rect><rect x="415.14" y="252.05" width="1.74" height="1.74" style="fill:#fafafa"></rect><rect x="415.14" y="254.96" width="1.74" height="1.74" style="fill:#fafafa"></rect><rect x="415.14" y="257.88" width="1.74" height="1.74" style="fill:#fafafa"></rect><rect x="412.38" y="222.89" width="1.74" height="1.74" style="fill:#fafafa"></rect><rect x="412.38" y="225.8" width="1.74" height="1.74" style="fill:#fafafa"></rect><rect x="412.38" y="228.72" width="1.74" height="1.74" style="fill:#fafafa"></rect><rect x="412.38" y="231.64" width="1.74" height="1.74" style="fill:#fafafa"></rect><rect x="412.38" y="234.55" width="1.74" height="1.74" style="fill:#fafafa"></rect><rect x="412.38" y="237.47" width="1.74" height="1.74" style="fill:#fafafa"></rect><rect x="412.38" y="240.38" width="1.74" height="1.74" style="fill:#fafafa"></rect><rect x="412.38" y="243.3" width="1.74" height="1.74" style="fill:#fafafa"></rect><rect x="412.38" y="246.22" width="1.74" height="1.74" style="fill:#fafafa"></rect><rect x="412.38" y="249.13" width="1.74" height="1.74" style="fill:#fafafa"></rect><rect x="412.38" y="252.05" width="1.74" height="1.74" style="fill:#fafafa"></rect><rect x="412.38" y="254.96" width="1.74" height="1.74" style="fill:#fafafa"></rect><rect x="412.38" y="257.88" width="1.74" height="1.74" style="fill:#fafafa"></rect><rect x="412.38" y="260.8" width="1.74" height="1.74" style="fill:#fafafa"></rect><rect x="397.03" y="223.76" width="1.74" height="1.74" style="fill:#fafafa"></rect><rect x="397.03" y="226.67" width="1.74" height="1.74" style="fill:#fafafa"></rect><rect x="397.03" y="229.59" width="1.74" height="1.74" style="fill:#fafafa"></rect><rect x="397.03" y="232.51" width="1.74" height="1.74" style="fill:#fafafa"></rect><rect x="397.03" y="235.42" width="1.74" height="1.74" style="fill:#fafafa"></rect><rect x="397.03" y="238.34" width="1.74" height="1.74" style="fill:#fafafa"></rect><rect x="397.03" y="241.25" width="1.74" height="1.74" style="fill:#fafafa"></rect><rect x="397.03" y="244.17" width="1.74" height="1.74" style="fill:#fafafa"></rect><rect x="397.03" y="247.09" width="1.74" height="1.74" style="fill:#fafafa"></rect><rect x="397.03" y="250" width="1.74" height="1.74" style="fill:#fafafa"></rect><rect x="397.03" y="258.75" width="1.74" height="1.74" style="fill:#fafafa"></rect><rect x="394.27" y="223.76" width="1.74" height="1.74" style="fill:#fafafa"></rect><rect x="394.27" y="226.67" width="1.74" height="1.74" style="fill:#fafafa"></rect><rect x="394.27" y="229.59" width="1.74" height="1.74" style="fill:#fafafa"></rect><rect x="394.27" y="232.51" width="1.74" height="1.74" style="fill:#fafafa"></rect><rect x="394.27" y="235.42" width="1.74" height="1.74" style="fill:#fafafa"></rect><rect x="394.27" y="238.34" width="1.74" height="1.74" style="fill:#fafafa"></rect><rect x="394.27" y="241.25" width="1.74" height="1.74" style="fill:#fafafa"></rect><rect x="394.27" y="244.17" width="1.74" height="1.74" style="fill:#fafafa"></rect><rect x="394.27" y="247.09" width="1.74" height="1.74" style="fill:#fafafa"></rect><rect x="394.27" y="255.83" width="1.74" height="1.74" style="fill:#fafafa"></rect><rect x="394.27" y="258.75" width="1.74" height="1.74" style="fill:#fafafa"></rect><rect x="391.51" y="223.76" width="1.74" height="1.74" style="fill:#fafafa"></rect><rect x="391.51" y="226.67" width="1.74" height="1.74" style="fill:#fafafa"></rect><rect x="391.51" y="229.59" width="1.74" height="1.74" style="fill:#fafafa"></rect><rect x="391.51" y="232.51" width="1.74" height="1.74" style="fill:#fafafa"></rect><rect x="391.51" y="235.42" width="1.74" height="1.74" style="fill:#fafafa"></rect><rect x="391.51" y="238.34" width="1.74" height="1.74" style="fill:#fafafa"></rect><rect x="391.51" y="241.25" width="1.74" height="1.74" style="fill:#fafafa"></rect><rect x="391.51" y="244.17" width="1.74" height="1.74" style="fill:#fafafa"></rect><rect x="391.51" y="252.92" width="1.74" height="1.74" style="fill:#fafafa"></rect><rect x="391.51" y="255.83" width="1.74" height="1.74" style="fill:#fafafa"></rect><rect x="391.51" y="258.75" width="1.74" height="1.74" style="fill:#fafafa"></rect><rect x="365.82" y="179.45" width="1.74" height="1.74" style="fill:#fafafa"></rect><rect x="365.82" y="182.37" width="1.74" height="1.74" style="fill:#fafafa"></rect><rect x="365.82" y="185.29" width="1.74" height="1.74" style="fill:#fafafa"></rect><rect x="365.82" y="188.2" width="1.74" height="1.74" style="fill:#fafafa"></rect><rect x="365.82" y="191.12" width="1.74" height="1.74" style="fill:#fafafa"></rect><rect x="365.82" y="194.03" width="1.74" height="1.74" style="fill:#fafafa"></rect><rect x="365.82" y="196.95" width="1.74" height="1.74" style="fill:#fafafa"></rect><rect x="365.82" y="199.87" width="1.74" height="1.74" style="fill:#fafafa"></rect><rect x="365.82" y="202.78" width="1.74" height="1.74" style="fill:#fafafa"></rect><rect x="365.82" y="205.7" width="1.74" height="1.74" style="fill:#fafafa"></rect><rect x="365.82" y="208.61" width="1.74" height="1.74" style="fill:#fafafa"></rect><rect x="365.82" y="211.53" width="1.74" height="1.74" style="fill:#fafafa"></rect><rect x="365.82" y="214.45" width="1.74" height="1.74" style="fill:#fafafa"></rect><rect x="365.82" y="217.36" width="1.74" height="1.74" style="fill:#fafafa"></rect><rect x="365.82" y="220.28" width="1.74" height="1.74" style="fill:#fafafa"></rect><rect x="365.82" y="223.19" width="1.74" height="1.74" style="fill:#fafafa"></rect><rect x="365.82" y="226.11" width="1.74" height="1.74" style="fill:#fafafa"></rect><rect x="365.82" y="231.94" width="1.74" height="1.74" style="fill:#fafafa"></rect><rect x="365.82" y="234.86" width="1.74" height="1.74" style="fill:#fafafa"></rect><rect x="365.82" y="237.77" width="1.74" height="1.74" style="fill:#fafafa"></rect><rect x="365.82" y="240.69" width="1.74" height="1.74" style="fill:#fafafa"></rect><rect x="365.82" y="243.61" width="1.74" height="1.74" style="fill:#fafafa"></rect><rect x="363.06" y="179.45" width="1.74" height="1.74" style="fill:#fafafa"></rect><rect x="363.06" y="182.37" width="1.74" height="1.74" style="fill:#fafafa"></rect><rect x="363.06" y="185.29" width="1.74" height="1.74" style="fill:#fafafa"></rect><rect x="363.06" y="188.2" width="1.74" height="1.74" style="fill:#fafafa"></rect><rect x="363.06" y="191.12" width="1.74" height="1.74" style="fill:#fafafa"></rect><rect x="363.06" y="194.03" width="1.74" height="1.74" style="fill:#fafafa"></rect><rect x="363.06" y="196.95" width="1.74" height="1.74" style="fill:#fafafa"></rect><rect x="363.06" y="199.87" width="1.74" height="1.74" style="fill:#fafafa"></rect><rect x="363.06" y="202.78" width="1.74" height="1.74" style="fill:#fafafa"></rect><rect x="363.06" y="205.7" width="1.74" height="1.74" style="fill:#fafafa"></rect><rect x="363.06" y="208.61" width="1.74" height="1.74" style="fill:#fafafa"></rect><rect x="363.06" y="211.53" width="1.74" height="1.74" style="fill:#fafafa"></rect><rect x="363.06" y="214.45" width="1.74" height="1.74" style="fill:#fafafa"></rect><rect x="363.06" y="217.36" width="1.74" height="1.74" style="fill:#fafafa"></rect><rect x="363.06" y="220.28" width="1.74" height="1.74" style="fill:#fafafa"></rect><rect x="363.06" y="223.19" width="1.74" height="1.74" style="fill:#fafafa"></rect><rect x="363.06" y="240.69" width="1.74" height="1.74" style="fill:#fafafa"></rect><rect x="363.06" y="243.61" width="1.74" height="1.74" style="fill:#fafafa"></rect><rect x="360.3" y="179.45" width="1.74" height="1.74" style="fill:#fafafa"></rect><rect x="360.3" y="182.37" width="1.74" height="1.74" style="fill:#fafafa"></rect><rect x="360.3" y="185.29" width="1.74" height="1.74" style="fill:#fafafa"></rect><rect x="360.3" y="188.2" width="1.74" height="1.74" style="fill:#fafafa"></rect><rect x="360.3" y="191.12" width="1.74" height="1.74" style="fill:#fafafa"></rect><rect x="360.3" y="194.03" width="1.74" height="1.74" style="fill:#fafafa"></rect><rect x="360.3" y="196.95" width="1.74" height="1.74" style="fill:#fafafa"></rect><rect x="360.3" y="199.87" width="1.74" height="1.74" style="fill:#fafafa"></rect><rect x="360.3" y="202.78" width="1.74" height="1.74" style="fill:#fafafa"></rect><rect x="360.3" y="205.7" width="1.74" height="1.74" style="fill:#fafafa"></rect><rect x="360.3" y="208.61" width="1.74" height="1.74" style="fill:#fafafa"></rect><rect x="360.3" y="211.53" width="1.74" height="1.74" style="fill:#fafafa"></rect><rect x="360.3" y="214.45" width="1.74" height="1.74" style="fill:#fafafa"></rect><rect x="360.3" y="217.36" width="1.74" height="1.74" style="fill:#fafafa"></rect><rect x="360.3" y="220.28" width="1.74" height="1.74" style="fill:#fafafa"></rect><rect x="360.3" y="223.19" width="1.74" height="1.74" style="fill:#fafafa"></rect><rect x="360.3" y="229.03" width="1.74" height="1.74" style="fill:#fafafa"></rect><rect x="360.3" y="231.94" width="1.74" height="1.74" style="fill:#fafafa"></rect><rect x="360.3" y="234.86" width="1.74" height="1.74" style="fill:#fafafa"></rect><rect x="360.3" y="237.77" width="1.74" height="1.74" style="fill:#fafafa"></rect><rect x="360.3" y="243.61" width="1.74" height="1.74" style="fill:#fafafa"></rect><rect x="375.85" y="216.19" width="1.74" height="1.74" style="fill:#fafafa"></rect><rect x="375.85" y="219.1" width="1.74" height="1.74" style="fill:#fafafa"></rect><rect x="375.85" y="222.02" width="1.74" height="1.74" style="fill:#fafafa"></rect><rect x="375.85" y="224.93" width="1.74" height="1.74" style="fill:#fafafa"></rect><rect x="375.85" y="227.85" width="1.74" height="1.74" style="fill:#fafafa"></rect><rect x="375.85" y="230.77" width="1.74" height="1.74" style="fill:#fafafa"></rect><rect x="375.85" y="233.68" width="1.74" height="1.74" style="fill:#fafafa"></rect><rect x="375.85" y="239.51" width="1.74" height="1.74" style="fill:#fafafa"></rect><rect x="375.85" y="242.43" width="1.74" height="1.74" style="fill:#fafafa"></rect><rect x="375.85" y="245.35" width="1.74" height="1.74" style="fill:#fafafa"></rect><rect x="375.85" y="248.26" width="1.74" height="1.74" style="fill:#fafafa"></rect><rect x="375.85" y="251.18" width="1.74" height="1.74" style="fill:#fafafa"></rect><rect x="375.85" y="254.09" width="1.74" height="1.74" style="fill:#fafafa"></rect><rect x="375.85" y="257.01" width="1.74" height="1.74" style="fill:#fafafa"></rect><rect x="375.85" y="259.93" width="1.74" height="1.74" style="fill:#fafafa"></rect><rect x="373.09" y="216.19" width="1.74" height="1.74" style="fill:#fafafa"></rect><rect x="373.09" y="219.1" width="1.74" height="1.74" style="fill:#fafafa"></rect><rect x="373.09" y="222.02" width="1.74" height="1.74" style="fill:#fafafa"></rect><rect x="373.09" y="224.93" width="1.74" height="1.74" style="fill:#fafafa"></rect><rect x="373.09" y="227.85" width="1.74" height="1.74" style="fill:#fafafa"></rect><rect x="373.09" y="230.77" width="1.74" height="1.74" style="fill:#fafafa"></rect><rect x="373.09" y="239.51" width="1.74" height="1.74" style="fill:#fafafa"></rect><rect x="373.09" y="242.43" width="1.74" height="1.74" style="fill:#fafafa"></rect><rect x="373.09" y="245.35" width="1.74" height="1.74" style="fill:#fafafa"></rect><rect x="373.09" y="248.26" width="1.74" height="1.74" style="fill:#fafafa"></rect><rect x="373.09" y="251.18" width="1.74" height="1.74" style="fill:#fafafa"></rect><rect x="373.09" y="254.09" width="1.74" height="1.74" style="fill:#fafafa"></rect><rect x="373.09" y="257.01" width="1.74" height="1.74" style="fill:#fafafa"></rect><rect x="373.09" y="259.93" width="1.74" height="1.74" style="fill:#fafafa"></rect><rect x="370.33" y="216.19" width="1.74" height="1.74" style="fill:#fafafa"></rect><rect x="370.33" y="219.1" width="1.74" height="1.74" style="fill:#fafafa"></rect><rect x="370.33" y="222.02" width="1.74" height="1.74" style="fill:#fafafa"></rect><rect x="370.33" y="224.93" width="1.74" height="1.74" style="fill:#fafafa"></rect><rect x="370.33" y="227.85" width="1.74" height="1.74" style="fill:#fafafa"></rect><rect x="370.33" y="230.77" width="1.74" height="1.74" style="fill:#fafafa"></rect><rect x="370.33" y="236.6" width="1.74" height="1.74" style="fill:#fafafa"></rect><rect x="370.33" y="239.51" width="1.74" height="1.74" style="fill:#fafafa"></rect><rect x="370.33" y="242.43" width="1.74" height="1.74" style="fill:#fafafa"></rect><rect x="370.33" y="245.35" width="1.74" height="1.74" style="fill:#fafafa"></rect><rect x="370.33" y="248.26" width="1.74" height="1.74" style="fill:#fafafa"></rect><rect x="370.33" y="251.18" width="1.74" height="1.74" style="fill:#fafafa"></rect><rect x="370.33" y="254.09" width="1.74" height="1.74" style="fill:#fafafa"></rect><rect x="370.33" y="257.01" width="1.74" height="1.74" style="fill:#fafafa"></rect><rect x="370.33" y="259.93" width="1.74" height="1.74" style="fill:#fafafa"></rect><rect x="312.11" y="199.87" width="1.74" height="1.74" style="fill:#fafafa"></rect><rect x="312.11" y="202.78" width="1.74" height="1.74" style="fill:#fafafa"></rect><rect x="312.11" y="205.7" width="1.74" height="1.74" style="fill:#fafafa"></rect><rect x="312.11" y="208.61" width="1.74" height="1.74" style="fill:#fafafa"></rect><rect x="312.11" y="211.53" width="1.74" height="1.74" style="fill:#fafafa"></rect><rect x="312.11" y="214.45" width="1.74" height="1.74" style="fill:#fafafa"></rect><rect x="312.11" y="217.36" width="1.74" height="1.74" style="fill:#fafafa"></rect><rect x="312.11" y="220.28" width="1.74" height="1.74" style="fill:#fafafa"></rect><rect x="312.11" y="223.19" width="1.74" height="1.74" style="fill:#fafafa"></rect><rect x="312.11" y="226.11" width="1.74" height="1.74" style="fill:#fafafa"></rect><rect x="312.11" y="229.03" width="1.74" height="1.74" style="fill:#fafafa"></rect><rect x="312.11" y="231.94" width="1.74" height="1.74" style="fill:#fafafa"></rect><rect x="312.11" y="234.86" width="1.74" height="1.74" style="fill:#fafafa"></rect><rect x="312.11" y="240.69" width="1.74" height="1.74" style="fill:#fafafa"></rect><rect x="312.11" y="243.61" width="1.74" height="1.74" style="fill:#fafafa"></rect><rect x="312.11" y="246.52" width="1.74" height="1.74" style="fill:#fafafa"></rect><rect x="312.11" y="249.44" width="1.74" height="1.74" style="fill:#fafafa"></rect><rect x="312.11" y="255.27" width="1.74" height="1.74" style="fill:#fafafa"></rect><rect x="312.11" y="258.19" width="1.74" height="1.74" style="fill:#fafafa"></rect><rect x="312.11" y="261.1" width="1.74" height="1.74" style="fill:#fafafa"></rect><rect x="309.34" y="199.87" width="1.74" height="1.74" style="fill:#fafafa"></rect><rect x="309.34" y="202.78" width="1.74" height="1.74" style="fill:#fafafa"></rect><rect x="309.34" y="205.7" width="1.74" height="1.74" style="fill:#fafafa"></rect><rect x="309.34" y="208.61" width="1.74" height="1.74" style="fill:#fafafa"></rect><rect x="309.34" y="211.53" width="1.74" height="1.74" style="fill:#fafafa"></rect><rect x="309.34" y="214.45" width="1.74" height="1.74" style="fill:#fafafa"></rect><rect x="309.34" y="217.36" width="1.74" height="1.74" style="fill:#fafafa"></rect><rect x="309.34" y="220.28" width="1.74" height="1.74" style="fill:#fafafa"></rect><rect x="309.34" y="223.19" width="1.74" height="1.74" style="fill:#fafafa"></rect><rect x="309.34" y="226.11" width="1.74" height="1.74" style="fill:#fafafa"></rect><rect x="309.34" y="229.03" width="1.74" height="1.74" style="fill:#fafafa"></rect><rect x="309.34" y="231.94" width="1.74" height="1.74" style="fill:#fafafa"></rect><rect x="309.34" y="234.86" width="1.74" height="1.74" style="fill:#fafafa"></rect><rect x="309.34" y="243.61" width="1.74" height="1.74" style="fill:#fafafa"></rect><rect x="309.34" y="246.52" width="1.74" height="1.74" style="fill:#fafafa"></rect><rect x="309.34" y="252.36" width="1.74" height="1.74" style="fill:#fafafa"></rect><rect x="309.34" y="255.27" width="1.74" height="1.74" style="fill:#fafafa"></rect><rect x="309.34" y="258.19" width="1.74" height="1.74" style="fill:#fafafa"></rect><rect x="309.34" y="261.1" width="1.74" height="1.74" style="fill:#fafafa"></rect><rect x="306.58" y="199.87" width="1.74" height="1.74" style="fill:#fafafa"></rect><rect x="306.58" y="202.78" width="1.74" height="1.74" style="fill:#fafafa"></rect><rect x="306.58" y="205.7" width="1.74" height="1.74" style="fill:#fafafa"></rect><rect x="306.58" y="208.61" width="1.74" height="1.74" style="fill:#fafafa"></rect><rect x="306.58" y="211.53" width="1.74" height="1.74" style="fill:#fafafa"></rect><rect x="306.58" y="214.45" width="1.74" height="1.74" style="fill:#fafafa"></rect><rect x="306.58" y="217.36" width="1.74" height="1.74" style="fill:#fafafa"></rect><rect x="306.58" y="220.28" width="1.74" height="1.74" style="fill:#fafafa"></rect><rect x="306.58" y="223.19" width="1.74" height="1.74" style="fill:#fafafa"></rect><rect x="306.58" y="226.11" width="1.74" height="1.74" style="fill:#fafafa"></rect><rect x="306.58" y="229.03" width="1.74" height="1.74" style="fill:#fafafa"></rect><rect x="306.58" y="231.94" width="1.74" height="1.74" style="fill:#fafafa"></rect><rect x="306.58" y="234.86" width="1.74" height="1.74" style="fill:#fafafa"></rect><rect x="306.58" y="237.77" width="1.74" height="1.74" style="fill:#fafafa"></rect><rect x="306.58" y="243.61" width="1.74" height="1.74" style="fill:#fafafa"></rect><rect x="306.58" y="249.44" width="1.74" height="1.74" style="fill:#fafafa"></rect><rect x="306.58" y="252.36" width="1.74" height="1.74" style="fill:#fafafa"></rect><rect x="306.58" y="255.27" width="1.74" height="1.74" style="fill:#fafafa"></rect><rect x="306.58" y="258.19" width="1.74" height="1.74" style="fill:#fafafa"></rect><rect x="306.58" y="261.1" width="1.74" height="1.74" style="fill:#fafafa"></rect><rect x="323.36" y="216.49" width="1.74" height="1.74" style="fill:#fafafa"></rect><rect x="323.36" y="219.41" width="1.74" height="1.74" style="fill:#fafafa"></rect><rect x="323.36" y="222.32" width="1.74" height="1.74" style="fill:#fafafa"></rect><rect x="323.36" y="225.24" width="1.74" height="1.74" style="fill:#fafafa"></rect><rect x="323.36" y="228.16" width="1.74" height="1.74" style="fill:#fafafa"></rect><rect x="323.36" y="231.07" width="1.74" height="1.74" style="fill:#fafafa"></rect><rect x="323.36" y="239.82" width="1.74" height="1.74" style="fill:#fafafa"></rect><rect x="323.36" y="242.74" width="1.74" height="1.74" style="fill:#fafafa"></rect><rect x="323.36" y="245.65" width="1.74" height="1.74" style="fill:#fafafa"></rect><rect x="323.36" y="248.57" width="1.74" height="1.74" style="fill:#fafafa"></rect><rect x="323.36" y="251.49" width="1.74" height="1.74" style="fill:#fafafa"></rect><rect x="323.36" y="254.4" width="1.74" height="1.74" style="fill:#fafafa"></rect><rect x="323.36" y="257.32" width="1.74" height="1.74" style="fill:#fafafa"></rect><rect x="320.6" y="216.49" width="1.74" height="1.74" style="fill:#fafafa"></rect><rect x="320.6" y="219.41" width="1.74" height="1.74" style="fill:#fafafa"></rect><rect x="320.6" y="222.32" width="1.74" height="1.74" style="fill:#fafafa"></rect><rect x="320.6" y="225.24" width="1.74" height="1.74" style="fill:#fafafa"></rect><rect x="320.6" y="228.16" width="1.74" height="1.74" style="fill:#fafafa"></rect><rect x="320.6" y="231.07" width="1.74" height="1.74" style="fill:#fafafa"></rect><rect x="320.6" y="239.82" width="1.74" height="1.74" style="fill:#fafafa"></rect><rect x="320.6" y="242.74" width="1.74" height="1.74" style="fill:#fafafa"></rect><rect x="320.6" y="245.65" width="1.74" height="1.74" style="fill:#fafafa"></rect><rect x="320.6" y="248.57" width="1.74" height="1.74" style="fill:#fafafa"></rect><rect x="320.6" y="251.49" width="1.74" height="1.74" style="fill:#fafafa"></rect><rect x="320.6" y="254.4" width="1.74" height="1.74" style="fill:#fafafa"></rect><rect x="320.6" y="260.23" width="1.74" height="1.74" style="fill:#fafafa"></rect><rect x="254.39" y="121.14" width="3.45" height="189.49" style="fill:#ebebeb"></rect><rect x="309.84" y="121.14" width="2.92" height="189.49" style="fill:#ebebeb"></rect><rect x="364.76" y="121.14" width="2.92" height="189.49" style="fill:#ebebeb"></rect><path d="M78.82,358.72s-4.47-9.74.63-19.33,6.58-11.86,3.33-13.83S78,333.24,78,333.24a21.67,21.67,0,0,1-.48-13.58c2.26-6.94,3.68-18.25.59-19.46s-.59,14.11-3.27,19.33a44.94,44.94,0,0,1-2.62-11.39c-.37-5.58.21-14.48-2.23-16.77s-4-.7-1.61,11.61a128.39,128.39,0,0,1,2.38,22.31S65.51,309.14,62,308.67s-3.55,4.76-.51,9.29,8.91,12.66,9.87,16.84c0,0-5.81-12.15-11-8.42s4.55,11.06,8.91,13.71,7.38,19.27,7.38,19.27Z" style="fill:#e0e0e0"></path><path d="M75.29,362.71s4.35-9.8-.86-19.32-6.72-11.76-3.5-13.77,4.84,7.6,4.84,7.6a21.64,21.64,0,0,0,.31-13.58c-2.34-6.91-3.9-18.19-.82-19.45s.76,14.09,3.5,19.28A45,45,0,0,0,81.24,312c.31-5.58-.38-14.48,2-16.8s4-.76,1.75,11.58a129.29,129.29,0,0,0-2.12,22.34s5.1-16.22,8.65-16.74,3.61,4.7.62,9.28-8.75,12.79-9.67,17c0,0,5.67-12.23,10.94-8.59S89,341.22,84.7,343.94s-7.15,19.38-7.15,19.38Z" style="fill:#ebebeb"></path><polygon points="95.33 355.72 59.44 355.72 62.35 381.41 92.43 381.41 95.33 355.72" style="fill:#ebebeb"></polygon><path d="M421.86,353.89c.13-.87,3.1-21.4-2.86-28.49a6.46,6.46,0,0,0-4.95-2.44c-12-.28-13.68,9.39-13.69,9.49l1.42.22c.05-.35,1.48-8.53,12.24-8.27a5,5,0,0,1,3.88,1.93c5.55,6.59,2.57,27.15,2.54,27.35Z" style="fill:#ebebeb"></path><path d="M422.59,353l1.43,0c0-.18-.48-18.92,8.75-22.79,9.05-3.78,13.12,4,13.29,4.34l1.28-.64c0-.1-4.82-9.34-15.12-5C422.08,333.05,422.56,352.15,422.59,353Z" style="fill:#ebebeb"></path><path d="M422.55,354.43c0-.3.08-29.92,5.86-38.59,5.54-8.31,14.49-4.4,14.87-4.23l.59-1.3c-.1-.05-10.43-4.61-16.66,4.74-6,9-6.1,38.14-6.1,39.38Z" style="fill:#ebebeb"></path><path d="M412.33,323.68s5.26,1.93,3.69,6.51-18.17,12.1-18.17,12.1-7-6.38-.57-16.76S412.19,320.4,412.33,323.68Z" style="fill:#e0e0e0"></path><path d="M428.67,314.28s-3.73-.4-3.43-2.67,14.5-8.12,22.88,1.34c0,0-5.37,9.21-13.12,9.33S428.67,314.28,428.67,314.28Z" style="fill:#e0e0e0"></path><path d="M432.5,329.46s-2.58-2.08.2-3.09,16.41-.73,16.55,12.78c0,0-15.87,2.64-17.84-2.51S432.5,329.46,432.5,329.46Z" style="fill:#e0e0e0"></path><polygon points="409.51 381.41 434.15 381.41 436.81 354.43 406.85 354.43 409.51 381.41" style="fill:#ebebeb"></polygon><rect x="405.53" y="351.45" width="32.59" height="5.95" transform="translate(843.65 708.86) rotate(180)" style="fill:#e0e0e0"></rect><circle cx="159.26" cy="119.26" r="14.17" style="fill:#e0e0e0"></circle><circle cx="159.26" cy="119.26" r="12.05" style="fill:#f0f0f0"></circle><polyline points="159.83 110.99 159.83 119.41 165.41 116.26" style="fill:#f0f0f0"></polyline><path d="M159.83,120.41a1,1,0,0,1-.5-.13,1,1,0,0,1-.5-.87V111a1,1,0,1,1,2,0v6.71l4.09-2.31a1,1,0,0,1,1.36.37,1,1,0,0,1-.37,1.37l-5.58,3.15A1,1,0,0,1,159.83,120.41Z" style="fill:#e0e0e0"></path></g><g id="freepik--Shadow--inject-177"><ellipse id="freepik--path--inject-177" cx="250" cy="416.24" rx="193.89" ry="11.32" style="fill:#f5f5f5"></ellipse></g><g id="freepik--Board--inject-177"><rect x="79.67" y="168.57" width="152.86" height="102.58" style="fill:#263238"></rect><polygon points="114.2 225.13 109.54 225.13 109.54 403.83 99.35 406 99.35 407.8 111.04 407.8 112.7 407.8 124.38 407.8 124.38 406 114.2 403.83 114.2 225.13" style="fill:#263238"></polygon><polygon points="202.66 403.83 202.66 225.13 198 225.13 198 403.83 187.81 406 187.81 407.8 199.5 407.8 201.16 407.8 212.84 407.8 212.84 406 202.66 403.83" style="fill:#263238"></polygon><g style="opacity:0.6000000000000001;isolation:isolate"><rect x="79.67" y="168.57" width="152.86" height="102.58" style="fill:#fff"></rect><polygon points="114.2 225.13 109.54 225.13 109.54 403.83 99.35 406 99.35 407.8 111.04 407.8 112.7 407.8 124.38 407.8 124.38 406 114.2 403.83 114.2 225.13" style="fill:#fff"></polygon><polygon points="202.66 403.83 202.66 225.13 198 225.13 198 403.83 187.81 406 187.81 407.8 199.5 407.8 201.16 407.8 212.84 407.8 212.84 406 202.66 403.83" style="fill:#fff"></polygon></g><rect x="109.23" y="147.85" width="93.73" height="144.02" transform="translate(375.96 63.76) rotate(90)" style="fill:#fff"></rect><g style="opacity:0.2;isolation:isolate"><polygon points="217.17 260.08 92.85 260.08 92.85 190.38 93.85 190.38 93.85 259.08 217.17 259.08 217.17 260.08"></polygon></g><rect x="99.35" y="248.51" width="5.37" height="10.07" style="opacity:0.2;isolation:isolate"></rect><rect x="99.35" y="248.51" width="5.37" height="2.93" style="fill:#485FC7"></rect><rect x="110.32" y="232.41" width="5.37" height="26.17" style="opacity:0.2;isolation:isolate"></rect><rect x="110.32" y="232.41" width="5.37" height="7.62" style="fill:#485FC7"></rect><rect x="121.29" y="238.44" width="5.37" height="20.14" style="opacity:0.2;isolation:isolate"></rect><rect x="121.29" y="238.44" width="5.37" height="5.86" style="fill:#485FC7"></rect><rect x="132.26" y="229.19" width="5.37" height="29.39" style="opacity:0.2;isolation:isolate"></rect><rect x="132.26" y="229.19" width="5.37" height="8.56" style="fill:#485FC7"></rect><rect x="143.23" y="220.64" width="5.37" height="37.94" style="opacity:0.2;isolation:isolate"></rect><rect x="143.23" y="220.64" width="5.37" height="11.05" style="fill:#485FC7"></rect><rect x="154.21" y="214.18" width="5.37" height="44.4" style="opacity:0.2;isolation:isolate"></rect><rect x="154.21" y="214.18" width="5.37" height="12.93" style="fill:#485FC7"></rect><rect x="165.18" y="221.65" width="5.37" height="36.93" style="opacity:0.2;isolation:isolate"></rect><rect x="165.18" y="221.65" width="5.37" height="10.75" style="fill:#485FC7"></rect><rect x="176.15" y="220.04" width="5.37" height="38.54" style="opacity:0.2;isolation:isolate"></rect><rect x="176.15" y="220.04" width="5.37" height="11.22" style="fill:#485FC7"></rect><rect x="187.12" y="210.21" width="5.37" height="48.37" style="opacity:0.2;isolation:isolate"></rect><rect x="187.12" y="210.21" width="5.37" height="14.08" style="fill:#485FC7"></rect><rect x="198.09" y="200.3" width="5.37" height="58.28" style="opacity:0.2;isolation:isolate"></rect><rect x="198.09" y="200.3" width="5.37" height="16.97" style="fill:#485FC7"></rect><rect x="209.06" y="191.63" width="5.37" height="66.95" style="opacity:0.2;isolation:isolate"></rect><rect x="209.06" y="191.63" width="5.37" height="19.49" style="fill:#485FC7"></rect><rect x="121.29" y="179.86" width="66.52" height="2.77" style="opacity:0.2;isolation:isolate"></rect></g><g id="freepik--character-2--inject-177"><path d="M226.32,248.1l-4.65-2.28s-1.38-3.06-1.48-3-8.9-1.82-8.9-1.82-.1,5.2.89,6.3,7,1.62,7.32,1.81,1-.44,1-.44l4.94,3.25Z" style="fill:#ebb376"></path><path d="M277.12,209s-1.92-4.45-8.15-4.45-11.43,3.71-11.13,8.45-3.26,4.3-3.86,8.9,1.63,5.79,1.78,7.72-2.37,1.33-4,4.6-3.71,7.86,3.26,13.94,26.7,5,31,1.34,4.15-10.83,0-12.76-.3-1.63.14-5.94-3.41-5.93-3.11-9.34S284.39,209.27,277.12,209Z" style="fill:#263238"></path><path d="M252.91,237.84v12.23s-1,1.32-2.62,3a40,40,0,0,1-5.42,4.94c-1.87,1.36-3.76,2.29-5.29,2.09-4.85-.62-17.91-8.13-17.91-8.13l2.18-5.77s14.83,7.63,15.73,6.84S250.22,238.54,252.91,237.84Z" style="fill:#485FC7"></path><path d="M250.29,253.07a40,40,0,0,1-5.42,4.94c-.7-5.46,5.56-12.2,5.56-12.2S250.52,249.32,250.29,253.07Z" style="opacity:0.2;isolation:isolate"></path><path d="M254.63,282.14s-8.13,43.33-10.3,61.11c-2.83,23.21-14.42,57.15-14.42,57.15l4.63,1.2s16.34-28.85,19.52-54.8c13-26.53,14-59.19,14-59.19Z" style="fill:#ebb376"></path><path d="M221.28,410.9a6.79,6.79,0,0,1,2.38-.6h0s2.85-1.68,5.67-8.19l3.18,0a2.62,2.62,0,0,1,2.44,1.75,1.64,1.64,0,0,1,.09.44,17.47,17.47,0,0,1-.25,2.28,62.26,62.26,0,0,1-1.85,7.47l-.54-.13,1-4.74c.32-1.61-1.37-.06-2.15,1.57s-2,3.25-5.5,2.45C221.65,412.23,220,411.64,221.28,410.9Z" style="fill:#263238"></path><path d="M263.07,281.45s1,44.07,2.56,61.92c2,23.29-2.29,58.9-2.29,58.9l4.79.21s10-31.6,7.76-57.65c7.21-28.64,1.47-60.82,1.47-60.82Z" style="fill:#ebb376"></path><path d="M255.9,412.35a6.77,6.77,0,0,1,2.31-.85h0s2.65-2,4.75-8.76l3.15-.36a2.62,2.62,0,0,1,2.62,1.47,1.64,1.64,0,0,1,.13.43,17.65,17.65,0,0,1,0,2.3,63.91,63.91,0,0,1-1,7.63l-.55-.08.46-4.82c.15-1.63-1.36.1-2,1.79s-1.62,3.46-5.19,3C256.41,413.63,254.71,413.22,255.9,412.35Z" style="fill:#263238"></path><path d="M229.91,400.4s-4,8.3-6.25,9.9c0,0,3.06,1.82,6.25-2.24,4.12-5.25,5.13-3.78,5.13-3.78a15.16,15.16,0,0,0-.5-2.68C233.92,399.91,229.91,400.4,229.91,400.4Z" style="fill:#ebb376"></path><path d="M263.83,400.33s-1.12,3.08-2.62,6.45a14.64,14.64,0,0,1-3,4.72s2.6.84,4-.79,3.81-7.54,6.51-6.86a6.51,6.51,0,0,0-.6-1.37C267.72,401.81,263.83,400.33,263.83,400.33Z" style="fill:#ebb376"></path><path d="M251.84,274.91s-3.22,32.07-8,64.23a340.29,340.29,0,0,1-12.85,54l9.49.79s18.2-45.1,23.74-71.21c0,0,2,46.28-1.19,72l8.31-.4s20.27-87.1,5.14-118.48Z" style="fill:#485FC7"></path><path d="M271.34,394.33l-8.31.39c3.16-25.71,1.19-72,1.19-72-1.4,6.59-3.61,14.38-6.12,22.36-7.45,23.63-17.62,48.85-17.62,48.85l-9.49-.8a339.94,339.94,0,0,0,12.85-54c4.79-32.15,8-64.22,8-64.22l24.63.93C291.61,307.22,271.34,394.33,271.34,394.33Z" style="fill:#fff;opacity:0.4;isolation:isolate"></path><path d="M264.22,322.72c-1.4,6.59-3.61,14.38-6.12,22.36-1-15,2.86-41.94,2.86-41.94Z" style="opacity:0.2;isolation:isolate"></path><polygon points="276.43 274.28 276.5 277.91 251.72 276.48 251.63 272.19 276.43 274.28" style="fill:#263238"></polygon><rect x="257.22" y="273.15" width="5.43" height="4.12" transform="translate(499.86 568.04) rotate(-175.97)" style="fill:#fff"></rect><rect x="267.99" y="272.94" width="1.23" height="6.26" transform="translate(528.2 560.62) rotate(-178.16)" style="fill:#485FC7"></rect><rect x="267.99" y="272.94" width="1.23" height="6.26" transform="translate(528.2 560.62) rotate(-178.16)" style="fill:#fff;opacity:0.4;isolation:isolate"></rect><rect x="252.84" y="271.56" width="1.23" height="6.26" transform="translate(497.98 557.37) rotate(-178.16)" style="fill:#485FC7"></rect><rect x="252.84" y="271.56" width="1.23" height="6.26" transform="translate(497.98 557.37) rotate(-178.16)" style="fill:#fff;opacity:0.4;isolation:isolate"></rect><path d="M251.68,272.65l24.75,1.63c.39-6.15.83-8,2.68-15.37.6-2.37,1.34-5,2.29-8.08.51-1.63,1.07-3.39,1.7-5.28.48-1.43,1-3,1.55-4.56a74.33,74.33,0,0,0-10.28-2.48,79.42,79.42,0,0,0-11.11-1.17c-4.82,0-10.35.5-10.35.5s-.79.19-1.28,5.3C251.18,247.93,250.69,255.21,251.68,272.65Z" style="fill:#263238"></path><path d="M251.68,272.65l24.75,1.63c.39-6.15.83-8,2.68-15.37.6-2.37,1.34-5,2.29-8.08.51-1.63,1.07-3.39,1.7-5.28.48-1.43,1-3,1.55-4.56a74.33,74.33,0,0,0-10.28-2.48,79.42,79.42,0,0,0-11.11-1.17c-4.82,0-10.35.5-10.35.5s-.79.19-1.28,5.3C251.18,247.93,250.69,255.21,251.68,272.65Z" style="fill:#fff;opacity:0.4;isolation:isolate"></path><path d="M265.3,242.81c6.1-.78,7.94-3.39,7.94-3.39-3.88-3.65-.66-10-.66-10l-7.34,1.37a21.59,21.59,0,0,1,.28,3.09c.06,4.46-2,4.5-2,4.5C262.28,240.82,265.3,242.81,265.3,242.81Z" style="fill:#ebb376"></path><path d="M265.24,230.81a21.59,21.59,0,0,1,.28,3.09,8.18,8.18,0,0,0,7.06-4.46Z" style="opacity:0.2;isolation:isolate"></path><path d="M269.3,210.28c-6.39-.35-8.63,2.95-9.46,9.5-1,8.19.47,14.13,8.55,12.82C279.36,230.8,279.9,210.86,269.3,210.28Z" style="fill:#ebb376"></path><path d="M264,219.65a13.84,13.84,0,0,1-2,2.55,1.74,1.74,0,0,0,1.64.81Z" style="fill:#d58745"></path><path d="M267.93,219.35c-.05.52.2,1,.55,1s.67-.37.71-.9-.21-1-.56-1S268,218.82,267.93,219.35Z" style="fill:#263238"></path><path d="M268.78,218.48l-1.11-.53S268.16,219,268.78,218.48Z" style="fill:#263238"></path><path d="M261.42,218.73c0,.52.21,1,.56,1s.67-.38.71-.9-.21-1-.56-1S261.46,218.2,261.42,218.73Z" style="fill:#263238"></path><path d="M262.27,217.87l-1.1-.54S261.66,218.33,262.27,217.87Z" style="fill:#263238"></path><path d="M271,216.42a.36.36,0,0,1-.3-.15,3,3,0,0,0-2.39-1,.35.35,0,0,1-.39-.33.37.37,0,0,1,.33-.39,3.67,3.67,0,0,1,3,1.27.36.36,0,0,1-.08.5A.33.33,0,0,1,271,216.42Z" style="fill:#2e353a"></path><path d="M261,215.17a.38.38,0,0,1-.31-.18.37.37,0,0,1,.13-.5,3.34,3.34,0,0,1,2.9-.41.37.37,0,1,1-.29.67,2.64,2.64,0,0,0-2.24.36A.33.33,0,0,1,261,215.17Z" style="fill:#2e353a"></path><path d="M264.42,225.58a16.1,16.1,0,0,1,.63,2.25h.41c1.87-.09,2.71-.75,3.07-1.45a2.26,2.26,0,0,0,.24-1.11,2.08,2.08,0,0,0-.08-.65,8.84,8.84,0,0,1-3.63.93Z" style="fill:#263238"></path><path d="M265.06,225.54l.2.66c1.76-.09,3-.38,3.51-.94a2.08,2.08,0,0,0-.08-.65A8.84,8.84,0,0,1,265.06,225.54Z" style="fill:#fff"></path><path d="M265.46,227.82c1.87-.09,2.71-.75,3.07-1.45a6.11,6.11,0,0,0-2.06.51A2.27,2.27,0,0,0,265.46,227.82Z" style="fill:#de5753"></path><path d="M275.68,221.42s-2.69-5.41-2-9.43c0,0-12.37-5.87-13.69,6.94,0,0-.62-11.47,10.37-11.12s10.06,16.4,4.13,20.87C274.47,228.68,277.35,224.8,275.68,221.42Z" style="fill:#263238"></path><path d="M276.33,209.67s-5-4.45-9.54-3.61-3.76,6.82,2.22,9.1,7.22,5.19,7.22,5.19l5.2-4.65Z" style="fill:#263238"></path><path d="M277.42,220.69l-.49-.1s.19-1.5-3.75-2.87c-4.16-1.45-8.88-3.1-9.5-6.43a3.48,3.48,0,0,1,.4-2.84,2,2,0,0,1,1.36-.77l0,.5a1.49,1.49,0,0,0-1,.59,3,3,0,0,0-.3,2.43c.57,3,5.14,4.64,9.18,6.05C277.76,218.78,277.43,220.61,277.42,220.69Z" style="fill:#263238"></path><path d="M274.57,222.71a2.8,2.8,0,0,1,3.15-2.4c2,.33,2.69,4.44-2.28,5.15C274.72,225.56,274.36,224.85,274.57,222.71Z" style="fill:#ebb376"></path><path d="M278.89,240.1s-7.16,5.81-13.83,5.71-9-7.59-9-7.59A38,38,0,0,1,278.89,240.1Z" style="fill:#ebb376"></path><path d="M284.65,241l-3.23,38.62-6.91.58c-1-5.25-1.2-13.55-1.07-21.36h0c.19-10.61.94-20.31.94-20.31A67.68,67.68,0,0,1,284.65,241Z" style="fill:#485FC7"></path><path d="M275.48,248.2l1.86,2.86-3.9,7.76c.19-10.61.94-20.31.94-20.31l5.94,5.53Z" style="fill:#fff;opacity:0.4;isolation:isolate"></path><path d="M261,237.28h0c-.16.28-3.6,6.54-6.34,18.52a134.6,134.6,0,0,0-3.05,22.1L249,276.68s-1.25-29.91,3.91-38.84Z" style="fill:#485FC7"></path><path d="M261,237.29c-.16.28-3.6,6.54-6.34,18.52l-1.23-7.72,2.59-2.28-2.59-4.93Z" style="fill:#fff;opacity:0.4;isolation:isolate"></path><path d="M294.66,264.32a2.3,2.3,0,0,1-3.46,1.14,8.89,8.89,0,0,1-3.06-2.85c-.63-.9-1.46-2.24-2.31-3.66-1.83-3.06-3.74-6.47-3.74-6.47L284.65,241C288.33,242.75,296,261.35,294.66,264.32Z" style="fill:#485FC7"></path><path d="M291.2,265.46a8.89,8.89,0,0,1-3.06-2.85c-.63-.9-1.46-2.24-2.31-3.66A35.93,35.93,0,0,1,288,255.5l1.86,5.23s3.27.74,3.78,2.45C293.83,263.82,292.72,264.74,291.2,265.46Z" style="opacity:0.2;isolation:isolate"></path><path d="M291.09,250.52,284.92,274a1.19,1.19,0,0,1-1.29.86l-16.34-2.18a.89.89,0,0,1-.77-1.13l6.17-23.49a1.2,1.2,0,0,1,1.28-.86l16.35,2.18A.89.89,0,0,1,291.09,250.52Z" style="fill:#263238"></path><path d="M291.09,250.52,284.92,274a1.19,1.19,0,0,1-1.29.86L268,272.78a.88.88,0,0,1-.76-1.13l6.16-23.49a1.2,1.2,0,0,1,1.29-.86l15.6,2.08A.89.89,0,0,1,291.09,250.52Z" style="fill:#fff;opacity:0.1"></path><path d="M279.74,259.47a1.73,1.73,0,0,0-1.85,1.24,1.26,1.26,0,0,0,1.1,1.62,1.71,1.71,0,0,0,1.84-1.23A1.28,1.28,0,0,1,279.74,259.47Z" style="fill:#fff;opacity:0.30000000000000004"></path><path d="M292.41,269.85c-1.1.59-3.58-.3-4.34-.6l-.23-.09s-1.36-4.42,2.17-6.82l.08,0c1.13-.61,4.62.17,4.72,1.35C295.23,268.37,293.72,269.16,292.41,269.85Z" style="fill:#485FC7"></path><path d="M290.26,266.07a5.65,5.65,0,0,1-2.19,3.18l-.23-.09s-1.36-4.42,2.17-6.82l.08,0C290.4,262.7,290.88,263.75,290.26,266.07Z" style="opacity:0.2;isolation:isolate"></path><path d="M285.17,260.46s2.26-.1,3.31,0,.72,3.45.72,3.45l.89.48s.73,2-.83,3l-.8-.27a2.28,2.28,0,0,1-.87,1.18c-.64.4-3.81-.49-3.81-.49Z" style="fill:#ebb376"></path></g><g id="freepik--Table--inject-177"><path d="M193,293.37H160.84l5.33-21.08a1.16,1.16,0,0,1,1.08-.83h30.38a.64.64,0,0,1,.66.83Z" style="fill:#263238"></path><polygon points="192.72 291.61 161.97 291.61 166.64 273.11 197.4 273.11 192.72 291.61" style="fill:#485FC7"></polygon><polygon points="192.72 291.61 161.97 291.61 166.64 273.11 197.4 273.11 192.72 291.61" style="fill:#fff;opacity:0.6000000000000001;isolation:isolate"></polygon><path d="M179,292.69H146.8V294a1,1,0,0,0,1,1h44.09a1,1,0,0,0,1-1v-1.34Z" style="fill:#263238"></path><path d="M179,292.69H146.8V294a1,1,0,0,0,1,1h44.09a1,1,0,0,0,1-1v-1.34Z" style="fill:#fff;opacity:0.6000000000000001;isolation:isolate"></path><path d="M163.9,292.69v.46h-5.6v-.46H146.8V294a1,1,0,0,0,1,1h30.09a1,1,0,0,0,1-1v-1.34Z" style="fill:#fff;opacity:0.2;isolation:isolate"></path><polygon points="180.7 284.03 165.97 284.03 168.1 275.57 182.84 275.57 180.7 284.03" style="fill:#fff;opacity:0.6000000000000001;isolation:isolate"></polygon><polygon points="182.71 276.07 167.98 276.07 168.1 275.57 182.84 275.57 182.71 276.07" style="fill:#485FC7"></polygon><polygon points="191.94 290.29 171.44 290.29 174.41 278.52 194.92 278.52 191.94 290.29" style="fill:#fff;isolation:isolate"></polygon><polygon points="194.74 279.21 174.24 279.21 174.41 278.52 194.92 278.52 194.74 279.21" style="fill:#485FC7"></polygon><polygon points="400.9 417.31 396.23 417.31 387.84 300.52 394.03 300.52 400.9 417.31" style="fill:#263238"></polygon><polygon points="400.9 417.31 396.23 417.31 388.25 306.33 387.84 300.71 394.03 300.71 394.37 306.33 400.9 417.31" style="fill:#fff;opacity:0.1;isolation:isolate"></polygon><polygon points="394.37 306.05 388.25 306.05 387.84 300.71 394.03 300.71 394.37 306.05" style="opacity:0.2;isolation:isolate"></polygon><polygon points="269.88 417.31 265.21 417.31 272.07 300.52 278.26 300.52 269.88 417.31" style="fill:#263238"></polygon><polygon points="278.26 300.71 277.85 306.33 269.87 417.31 265.21 417.31 271.73 306.33 272.07 300.71 278.26 300.71" style="fill:#fff;opacity:0.1;isolation:isolate"></polygon><polygon points="272.07 300.71 278.26 300.71 277.85 306.05 271.73 306.05 272.07 300.71" style="opacity:0.2;isolation:isolate"></polygon><polygon points="213.19 417.31 208.52 417.31 200.13 300.52 206.32 300.52 213.19 417.31" style="fill:#263238"></polygon><polygon points="213.19 417.31 208.52 417.31 200.54 306.33 200.13 300.71 206.32 300.71 206.66 306.33 213.19 417.31" style="fill:#fff;opacity:0.1;isolation:isolate"></polygon><polygon points="206.66 306.05 200.54 306.05 200.13 300.71 206.32 300.71 206.66 306.05" style="opacity:0.2;isolation:isolate"></polygon><polygon points="92.17 417.31 87.5 417.31 94.36 300.52 100.56 300.52 92.17 417.31" style="fill:#263238"></polygon><polygon points="100.55 300.71 100.14 306.33 92.16 417.31 87.5 417.31 94.02 306.33 94.36 300.71 100.55 300.71" style="fill:#fff;opacity:0.1;isolation:isolate"></polygon><polygon points="94.36 300.71 100.55 300.71 100.14 306.05 94.02 306.05 94.36 300.71" style="opacity:0.2;isolation:isolate"></polygon><path d="M89.45,297.6H398.94a0,0,0,0,1,0,0v4.15a1.7,1.7,0,0,1-1.7,1.7H91.16a1.7,1.7,0,0,1-1.7-1.7V297.6a0,0,0,0,1,0,0Z" style="fill:#485FC7"></path><path d="M89.45,297.6H398.94a0,0,0,0,1,0,0v4.15a1.7,1.7,0,0,1-1.7,1.7H91.16a1.7,1.7,0,0,1-1.7-1.7V297.6a0,0,0,0,1,0,0Z" style="fill:#fff;opacity:0.6000000000000001;isolation:isolate"></path><rect x="89.45" y="297.6" width="309.49" height="2.92" style="opacity:0.2;isolation:isolate"></rect><path d="M401.84,298.36H86.56a1.64,1.64,0,0,1-1.65-1.64h0a1.65,1.65,0,0,1,1.65-1.65H401.84a1.64,1.64,0,0,1,1.64,1.65h0A1.63,1.63,0,0,1,401.84,298.36Z" style="fill:#485FC7"></path><path d="M401.84,298.36H86.56a1.64,1.64,0,0,1-1.65-1.64h0a1.65,1.65,0,0,1,1.65-1.65H401.84a1.64,1.64,0,0,1,1.64,1.65h0A1.63,1.63,0,0,1,401.84,298.36Z" style="fill:#fff;opacity:0.6000000000000001;isolation:isolate"></path><path d="M298.16,293.37h32.12L325,272.29a1.16,1.16,0,0,0-1.08-.83H293.5a.64.64,0,0,0-.67.83Z" style="fill:#263238"></path><polygon points="298.4 291.61 329.15 291.61 324.48 273.11 293.72 273.11 298.4 291.61" style="fill:#485FC7"></polygon><polygon points="298.4 291.61 329.15 291.61 324.48 273.11 293.72 273.11 298.4 291.61" style="fill:#fff;opacity:0.6000000000000001;isolation:isolate"></polygon><path d="M312.16,292.69h32.16V294a1,1,0,0,1-1,1H299.2a1,1,0,0,1-1-1v-1.34Z" style="fill:#263238"></path><path d="M312.16,292.69h32.16V294a1,1,0,0,1-1,1H299.2a1,1,0,0,1-1-1v-1.34Z" style="fill:#fff;opacity:0.6000000000000001;isolation:isolate"></path><path d="M327.22,292.69v.46h5.6v-.46h11.5V294a1,1,0,0,1-1,1H313.2a1,1,0,0,1-1-1v-1.34Z" style="fill:#fff;opacity:0.2;isolation:isolate"></path><polygon points="299.75 290.25 327.35 290.25 323.34 274.41 295.74 274.41 299.75 290.25" style="fill:#fff;isolation:isolate"></polygon><polygon points="295.98 275.34 323.58 275.34 323.34 274.41 295.74 274.41 295.98 275.34" style="fill:#485FC7"></polygon></g><g id="freepik--character-3--inject-177"><g id="freepik--group--inject-177"><path d="M368.46,409l7.88-.5a.5.5,0,0,1,.55.45h0l.78,6.22a1.25,1.25,0,0,1-1.15,1.32c-2.76.12-4.08.05-7.55.23a65.58,65.58,0,0,1-9.27.3c-2.94-.28-2.58-3.18-1.31-3.32a19.41,19.41,0,0,0,8.88-4.23A1.94,1.94,0,0,1,368.46,409Z" style="fill:#263238"></path><path d="M328.28,409l7.88-.5a.5.5,0,0,1,.55.45h0l.78,6.22a1.25,1.25,0,0,1-1.15,1.32c-2.76.12-4.08.05-7.55.23a65.58,65.58,0,0,1-9.27.3c-2.94-.28-2.58-3.18-1.31-3.32a19.41,19.41,0,0,0,8.88-4.23A1.94,1.94,0,0,1,328.28,409Z" style="fill:#263238"></path><path d="M357.89,290.07l-6.48,1a24.09,24.09,0,0,0-4.52-1,29.49,29.49,0,0,0-5,0S339,291.17,339,294c0,0,6.84,1.83,9.47.73l9.47-.73Z" style="fill:#ebb376"></path><path d="M373.26,265.37c-4,4.17-6.78,20.3-7.51,21.4s-14.67,3.12-14.67,3.12-1.46,3,0,5.55c0,0,17.27-.79,19.36-1.89s7.23-13.14,7.23-13.14a24.41,24.41,0,0,0-.68-8.31C375.83,267,373.26,265.37,373.26,265.37Z" style="fill:#485FC7"></path><path d="M373.26,265.37c-4,4.17-6.78,20.3-7.51,21.4s-14.67,3.12-14.67,3.12-1.46,3,0,5.55c0,0,17.27-.79,19.36-1.89s7.23-13.14,7.23-13.14a24.41,24.41,0,0,0-.68-8.31C375.83,267,373.26,265.37,373.26,265.37Z" style="fill:#fff;opacity:0.6000000000000001"></path><path d="M342.64,243.16a17.73,17.73,0,0,1-2,3.84,2.34,2.34,0,0,0,2.36.65Z" style="fill:#d58745"></path><path d="M341.55,242c.08.69.52,1.21,1,1.16s.78-.66.7-1.36-.53-1.21-1-1.16S341.47,241.32,341.55,242Z" style="fill:#2e353a"></path><path d="M342.86,240a.41.41,0,0,1-.24-.08,1,1,0,0,0-.81-.33.35.35,0,0,1-.43-.26.36.36,0,0,1,.25-.44,1.66,1.66,0,0,1,1.47.48.36.36,0,0,1,0,.51A.36.36,0,0,1,342.86,240Z" style="fill:#2e353a"></path><path d="M344.47,251c.17.31.34.6.53.88a9.66,9.66,0,0,0,4.46,3.6,9.23,9.23,0,0,0,1.41.45,8.77,8.77,0,0,0,7.39-1.52,9,9,0,0,0,2.31-2.64c2.51-4.27,1.43-8.18.12-15a9.43,9.43,0,0,0-14.92-5.93C339.9,235.21,341.51,245.36,344.47,251Z" style="fill:#ebb376"></path><path d="M349.46,255.48a9.23,9.23,0,0,0,1.41.45,8.77,8.77,0,0,0,7.39-1.52,10.34,10.34,0,0,0-1.76-2A13.67,13.67,0,0,0,349.46,255.48Z" style="opacity:0.2;isolation:isolate"></path><path d="M368.86,260.17c-2.53,3.82-14.65,5.32-14.65,5.32s-5.37-.11-4.71-1.94c2.83-1.24,3.92-3,4.06-4.9a8.68,8.68,0,0,0-.55-3.46,18.67,18.67,0,0,0-.73-1.82l8.09-9.89C358.26,254.41,364.76,257.46,368.86,260.17Z" style="fill:#ebb376"></path><path d="M342.61,230.5c2.29-3.6,4.33-3,4.33-3,1.46-3,10.05-3.14,14.41-.17s5.88,8.53,5.59,12.95c-.42,6.43-4.46,13-4.46,13h0c-5.07,1.35-9.33.24-9.65-2.44s-3-4.68-3-4.68c-2.5.84-4.76-1.94-4.76-1.94s-2.83-2.5-2.07-6S340.67,233.53,342.61,230.5Z" style="fill:#263238"></path><path d="M350.69,244.39a4.44,4.44,0,0,1-1.47,3.52c-1.21.92-2.59-.77-2.9-2.82-.26-1.83,0-4.56,1.56-4.6S350.71,242.47,350.69,244.39Z" style="fill:#ebb376"></path><path d="M346.26,244.49s.69,5.83,2.26,8.15,1.38,3.11,3.53,3.48c0,0-1.22,1.61-2.3,1.38s-.85-1.15-1.81-1.14-2.63-.65-2.46-1.65.37-1.27-.9-2.13-1.72-2.8-1-3.61a2.31,2.31,0,0,1,2-.55l-.1-4.35Z" style="fill:#263238"></path><path d="M351.68,263.55s1.95-8.79,13.74-8.7l3,4.35Z" style="fill:#485FC7"></path><path d="M351.68,263.55s1.95-8.79,13.74-8.7l3,4.35Z" style="fill:#fff;opacity:0.8"></path><path d="M353.65,372.3c4.47,17,11.51,38.88,11.51,38.88l12.36-.94s-6.71-29.55-8.55-47.69c-1.14-11.2-1-20.47,2.24-21.18,2.07-.46,6.89-.44,13.08-.3V318c-17.36,3.56-34.63,10.29-35.94,15.68C346.51,341.29,349.72,357.36,353.65,372.3Z" style="fill:#485FC7"></path><path d="M353.65,372.3c4.62-2.92,10-6.36,15.32-9.75-1.14-11.2-1-20.47,2.24-21.18,2.07-.46,6.89-.44,13.08-.3V318c-17.36,3.56-34.63,10.29-35.94,15.68C346.51,341.29,349.72,357.36,353.65,372.3Z" style="opacity:0.2;isolation:isolate"></path><path d="M360.72,311.16l-3-8.88s-2.11-16.45-12.84-37.17c0,0,12.91-9.16,27.22-7.8,11,1.05,21.38,29.28,24.62,51.62Z" style="fill:#485FC7"></path><path d="M396.77,308.93l-36,2.23-3-8.88a74.69,74.69,0,0,0-1.54-7.58,128.35,128.35,0,0,0-3.77-12.33,141.77,141.77,0,0,0-7.53-17.26s12.91-9.16,27.22-7.8C383.17,258.36,393.53,286.59,396.77,308.93Z" style="fill:#fff;opacity:0.9"></path><path d="M360.42,315.75,359.33,307l35.37-5.82s11.57,22.92,5.91,34.15c-5.2,10.31-60.49,4.17-69,6s5.79,68.72,5.79,68.72L325,411s-20.22-61.12-16.29-77.33C310.46,326.63,339.61,317.27,360.42,315.75Z" style="fill:#485FC7"></path><polygon points="396 305.16 379.61 307.31 379.08 304.9 395.5 302.51 396 305.16"></polygon><polygon points="377.71 304.91 377.91 307.31 362.76 309.39 362.76 307.02 377.71 304.91"></polygon><polygon points="361.82 307.15 361.82 309.39 359.63 309.69 359.63 307.52 361.82 307.15"></polygon><path d="M356.23,295.48a117.59,117.59,0,0,0-3.77-11.75,9.42,9.42,0,0,1,2.59-3.32S358.44,291.44,356.23,295.48Z" style="opacity:0.2;isolation:isolate"></path><path d="M327.58,292.55l-5.46-.88a25.29,25.29,0,0,0-4.52-1,30.71,30.71,0,0,0-5,0s-2.93,1.1-2.93,3.91c0,0,6.84,1.83,9.47.73l8.05,1.83Z" style="fill:#ebb376"></path><path d="M344.93,265.37c-2.55,2.8-1.06,25.71-1.89,27.28S323.13,291,323.13,291l-1.25,5.68s22.42,6.59,26.54,6.66,6.63-24.19,6.63-24.19a21,21,0,0,0-3.59-7.69A20.56,20.56,0,0,0,344.93,265.37Z" style="fill:#485FC7"></path><path d="M344.93,265.37c-2.55,2.8-1.06,25.71-1.89,27.28S323.13,291,323.13,291l-1.25,5.68s22.42,6.59,26.54,6.66,6.63-24.19,6.63-24.19a21,21,0,0,0-3.59-7.69A20.56,20.56,0,0,0,344.93,265.37Z" style="fill:#fff;opacity:0.9"></path></g><path d="M340.68,334h70.07a0,0,0,0,1,0,0v4.46a6.79,6.79,0,0,1-6.79,6.79H347.47a6.79,6.79,0,0,1-6.79-6.79V334A0,0,0,0,1,340.68,334Z" transform="translate(751.42 679.26) rotate(180)" style="fill:#485FC7"></path><path d="M340.68,334h70.07a0,0,0,0,1,0,0v4.46a6.79,6.79,0,0,1-6.79,6.79H347.47a6.79,6.79,0,0,1-6.79-6.79V334A0,0,0,0,1,340.68,334Z" transform="translate(751.42 679.26) rotate(180)" style="fill:#fff;opacity:0.4;isolation:isolate"></path><path d="M387.76,306.14H349.18c-2,0-3.45,2.15-3,4.4l6.9,34.72h1.59l-5.87-30.43c-.44-2.24,1-4.38,3-4.38H387Z" style="fill:#263238"></path><path d="M371.21,346.47V375.8a1.71,1.71,0,0,0,1.71,1.71h7.19a1.7,1.7,0,0,0,1.7-1.71V346.47Z" style="fill:#263238"></path><circle cx="414.02" cy="414.19" r="3.12" style="fill:#263238"></circle><path d="M412.46,414.19a1.56,1.56,0,1,1,1.56,1.56A1.55,1.55,0,0,1,412.46,414.19Z" style="fill:#fff;opacity:0.2"></path><path d="M335.89,414.19a3.12,3.12,0,1,1,3.12,3.12A3.12,3.12,0,0,1,335.89,414.19Z" style="fill:#263238"></path><path d="M337.45,414.19a1.56,1.56,0,1,1,1.56,1.56A1.55,1.55,0,0,1,337.45,414.19Z" style="fill:#fff;opacity:0.2"></path><path d="M373.93,400.52V367h5.16v33.52c20.08.52,32.28,7.53,34.72,9.07a1,1,0,0,1,.45.83v2.79a1,1,0,0,1-1,1h0a1,1,0,0,1-.86-.49l-1.19-2.09a112.64,112.64,0,0,0-32.14-5.32v5.51a1.27,1.27,0,0,1-1.27,1.27h-2.61a1.28,1.28,0,0,1-1.28-1.27v-5.51a112.61,112.61,0,0,0-32.13,5.32l-1.2,2.09a1,1,0,0,1-.85.49h0a1,1,0,0,1-1-1v-2.79a1,1,0,0,1,.46-.83C341.66,408.05,353.86,401,373.93,400.52Z" style="fill:#263238"></path><rect x="374.82" y="411.08" width="3.38" height="6.23" transform="translate(753.03 828.39) rotate(180)" style="fill:#263238"></rect><rect x="371.21" y="346.47" width="10.6" height="12.19" style="opacity:0.2;isolation:isolate"></rect><path d="M338.76,343.45V347a1.68,1.68,0,0,0,1.54,1.79h70.82a1.67,1.67,0,0,0,1.53-1.79v-3.5a1.68,1.68,0,0,0-1.53-1.79H340.3A1.69,1.69,0,0,0,338.76,343.45Z" style="fill:#263238"></path><path d="M371.34,345.26h41.31s13.13-21.56,13.13-57.19V275a9.8,9.8,0,0,0-9.86-9.73H398.4a9.8,9.8,0,0,0-9.86,9.46C388,293.07,385.29,332.82,371.34,345.26Z" style="fill:#263238"></path><path d="M380.43,345.26h30.36a3.15,3.15,0,0,0,2.79-1.67c3-5.69,12.2-25.67,12.2-55.52V275a9.8,9.8,0,0,0-9.86-9.73H400.78a9.8,9.8,0,0,0-9.85,9.46c-.46,16.4-2.69,49.87-13.11,65.69A3.11,3.11,0,0,0,380.43,345.26Z" style="fill:#fff;opacity:0.2"></path><path d="M338.76,343.45V347a1.68,1.68,0,0,0,1.54,1.79H372a2.27,2.27,0,0,0,2.08-2.42v-2.24a2.27,2.27,0,0,0-2.08-2.42H340.3A1.69,1.69,0,0,0,338.76,343.45Z" style="opacity:0.2;isolation:isolate"></path></g><g id="freepik--character-1--inject-177"><g id="freepik--group--inject-177"><path d="M150.11,268.63l-3,.72-.7-2.44a2.23,2.23,0,0,1-2.14,0,12.53,12.53,0,0,1-1.33-.79C141.56,265.23,140,264,140,264l2.34-4.77s1,.41,2.27,1c1.76.79,4,1.84,4.36,2.4a4.38,4.38,0,0,1,.33,2.72Z" style="fill:#e4897b"></path><path d="M142.91,266.12C141.56,265.23,140,264,140,264l2.34-4.77s1,.41,2.27,1A8.46,8.46,0,0,1,142.91,266.12Z" style="opacity:0.2;isolation:isolate"></path><polygon points="191.96 378.79 186.95 380.75 183.34 373.95 180.06 367.76 185.62 364.43 188.98 372.02 191.96 378.79" style="fill:#e4897b"></polygon><polygon points="188.98 372.02 183.34 373.95 180.06 367.76 185.62 364.43 188.98 372.02" style="opacity:0.2;isolation:isolate"></polygon><path d="M187.94,368.31,181.11,372s-25.79-45.35-29.76-45-41.59,24.36-53.06,15.51S98,307,98,307s23.73-6.78,26.31-1.57a39,39,0,0,1,1.7,4.77c.5,1.63.89,3,.89,3h0c.72-.29,24.17-9.91,34.63-4.75C172.16,313.68,187.94,368.31,187.94,368.31Z" style="fill:#263238"></path><path d="M187.94,368.31,181.11,372s-25.79-45.35-29.76-45-41.59,24.36-53.06,15.51S98,307,98,307s23.73-6.78,26.31-1.57a39,39,0,0,1,1.7,4.77c.5,1.63.89,3,.89,3h0c.72-.29,24.17-9.91,34.63-4.75C172.16,313.68,187.94,368.31,187.94,368.31Z" style="fill:#fff;opacity:0.30000000000000004;isolation:isolate"></path><polygon points="150.86 405.3 145.51 404.68 145.48 397.13 145.47 390.2 151.94 389.9 151.37 398.05 150.86 405.3" style="fill:#e4897b"></polygon><polygon points="151.35 398.21 145.46 397.28 145.46 390.27 151.94 389.93 151.35 398.21" style="opacity:0.2;isolation:isolate"></polygon><polygon points="177.77 369.73 187.76 364.72 188.8 368.95 181.24 372.86 177.77 369.73" style="fill:#485FC7"></polygon><path d="M116,342.58s1.65-.19,26.88-4.86c0,0,.57,32.27,1.77,56.32l7.77.25s11.15-53.39,9.84-61.45-10.91-9.15-10.91-9.15S134.71,336.63,116,342.58Z" style="fill:#263238"></path><path d="M116,342.58s1.65-.19,26.88-4.86c0,0,.57,32.27,1.77,56.32l7.77.25s11.15-53.39,9.84-61.45-10.91-9.15-10.91-9.15S134.71,336.63,116,342.58Z" style="fill:#fff;opacity:0.4;isolation:isolate"></path><path d="M116,342.58s1.65-.19,26.88-4.86c0,0,.57,32.27,1.77,56.32l7.77.25s11.15-53.39,9.84-61.45-10.91-9.15-10.91-9.15S134.71,336.63,116,342.58Z" style="opacity:0.30000000000000004;isolation:isolate"></path><polygon points="143.23 391.89 153.83 391.64 152.38 396.01 143.78 396.09 143.23 391.89" style="fill:#485FC7"></polygon><path d="M201.94,387.68a7.33,7.33,0,0,0-2.59-.29h0s-3.24-1.35-7.15-7.79l-3.35.44a2.78,2.78,0,0,0-2.31,2.19,1.83,1.83,0,0,0,0,.47,17.46,17.46,0,0,0,.59,2.37,66.39,66.39,0,0,0,3,7.59l.55-.22L189,387.6c-.57-1.65,1.43-.26,2.49,1.34s2.56,3.13,6.13,1.78C201.74,389.13,203.39,388.27,201.94,387.68Z" style="fill:#263238"></path><path d="M191.34,377.88s5.37,8.16,8,9.51c0,0-3,2.36-6.9-1.45-5.09-4.93-5.94-3.24-5.94-3.24a15.17,15.17,0,0,1,.14-2.89C187.05,377.94,191.34,377.88,191.34,377.88Z" style="fill:#e4897b"></path><path d="M158.87,414.79a7.24,7.24,0,0,0-2.45-.9h0s-2.83-2.08-5.1-9.27l-3.35-.37a2.81,2.81,0,0,0-2.77,1.58,1.53,1.53,0,0,0-.14.46,18.06,18.06,0,0,0,0,2.44,67,67,0,0,0,1.14,8.09l.59-.08-.52-5.11c-.17-1.74,1.45.09,2.1,1.89s1.75,3.65,5.54,3.19C158.33,416.14,160.14,415.7,158.87,414.79Z" style="fill:#263238"></path><path d="M150.9,402.75s3.28,9.2,5.52,11.14c0,0-3.43,1.59-6.36-3.05-3.78-6-5-4.55-5-4.55a15.67,15.67,0,0,1,.82-2.78C146.71,401.79,150.9,402.75,150.9,402.75Z" style="fill:#e4897b"></path><path d="M142.05,250.79a.23.23,0,0,1-.14,0,.25.25,0,0,1-.07-.35,3.62,3.62,0,0,1,2.93-1.38.25.25,0,0,1,.24.25.24.24,0,0,1-.26.25,3.14,3.14,0,0,0-2.49,1.16A.26.26,0,0,1,142.05,250.79Z" style="fill:#263238"></path><path d="M144,253.67a13.87,13.87,0,0,0,2.17,2.49,1.78,1.78,0,0,1-1.63.91Z" style="fill:#de5753"></path><path d="M144.89,251.77c.07.53-.16,1-.52,1s-.69-.35-.76-.88.16-1,.52-1S144.82,251.24,144.89,251.77Z" style="fill:#263238"></path><path d="M144,250.93l1.1-.6S144.63,251.38,144,250.93Z" style="fill:#263238"></path><path d="M131.08,264.51a1.07,1.07,0,0,0,.22.15,9.78,9.78,0,0,0,3.49,1.5c3.65.66,6.08,0,7.61-1.67h0c2.13-2.56,2.48-6.92,1.91-12.13a19.76,19.76,0,0,0-1.44-6.05s0-.08,0-.1a2,2,0,0,1-.1-.21,7.15,7.15,0,0,0-5.46-4.1,14.39,14.39,0,0,0-3.11-.2C124,242.09,123,259.07,131.08,264.51Z" style="fill:#e4897b"></path><path d="M131.3,264.66a9.52,9.52,0,0,0,3.48,1.36c3.65.65,6.08-.08,7.61-1.81a10.22,10.22,0,0,1-6.5-.22A5.3,5.3,0,0,0,131.3,264.66Z" style="opacity:0.2;isolation:isolate"></path><path d="M142.88,246.24s.91,7.12-5.71,10.52c0,0-2.55,7.57-6.83,7.89-5.83.43-11.39-7.63-9.78-16.19C122.65,237.35,139.24,235.65,142.88,246.24Z" style="fill:#263238"></path><path d="M140.5,254.54c-.06-1.11-1.05-2.94-2.77-2.6s-2.56,4.82,1.9,5.59C140.27,257.64,140.62,256.87,140.5,254.54Z" style="fill:#e4897b"></path><path d="M130.06,239.25s6.73-2.06,10.64.5c4.56,3,6.39,6.22,1.43,11.62,0,0-11.64-3.16-15.41-2.19a41.52,41.52,0,0,0-6.43,2.22C119.11,243.87,126.17,237.89,130.06,239.25Z" style="fill:#263238"></path><path d="M136.46,265.47s-5,2.44-3.54,7.81L120.16,268s7-.44,6.62-5.33C126.78,262.64,134.07,259.84,136.46,265.47Z" style="fill:#e4897b"></path><path d="M131.8,240.63s-3.81-11-12.44-9.07-8,11.16-1.79,14S132.39,247.36,131.8,240.63Z" style="fill:#263238"></path><path d="M120,245.4s-7.62,0-6.68,6.49a5.54,5.54,0,0,1,2.37-3s-2.3,1.77,0,4.83c0,0-.92-2,2.23-3.39s11.77-1.26,10.16-5.52S120,245.4,120,245.4Z" style="fill:#263238"></path><path d="M130.45,240.86a.24.24,0,0,1-.24-.21c0-.07-1-6.62-5.18-9.47a8.54,8.54,0,0,0-7.12-1,.25.25,0,0,1-.12-.49,9,9,0,0,1,7.52,1c4.4,3,5.35,9.54,5.39,9.82a.25.25,0,0,1-.21.28Z" style="fill:#263238"></path><path d="M126.17,260.5a.2.2,0,0,1-.11,0c-.08,0-8-4.13-6.59-10.53a.25.25,0,0,1,.3-.19.26.26,0,0,1,.19.3c-1.33,6,6.25,9.94,6.32,10a.23.23,0,0,1,.11.33A.24.24,0,0,1,126.17,260.5Z" style="fill:#263238"></path><path d="M111.69,250.28h0a.25.25,0,0,1-.21-.28c.61-4.86,7.65-4.8,7.72-4.8a.25.25,0,0,1,.25.25.27.27,0,0,1-.26.25c-.06,0-6.66,0-7.22,4.36A.24.24,0,0,1,111.69,250.28Z" style="fill:#263238"></path><path d="M121,267.61l3.11-2.24s10.24,1.39,10.34,7.91S121,267.61,121,267.61Z" style="fill:#485FC7"></path><path d="M119.17,267.61s7.67-1.47,18.36,5.67c0,0,3.57,15.65-11.54,36.91l-28.66-1.8S105.09,277.07,119.17,267.61Z" style="fill:#263238"></path><path d="M126.88,313.2l-9.76,4.9a22.05,22.05,0,0,1,8.87-7.91C126.49,311.82,126.88,313.2,126.88,313.2Z" style="opacity:0.30000000000000004;isolation:isolate"></path><path d="M136.66,287.7a54.09,54.09,0,0,1-2,6.53,70.14,70.14,0,0,1-8.65,16l-28.66-1.8s7.76-31.32,21.84-40.78c0,0,7.67-1.47,18.36,5.67C137.53,273.28,138.79,278.79,136.66,287.7Z" style="fill:#fff;opacity:0.1;isolation:isolate"></path><path d="M136.66,287.7a54.09,54.09,0,0,1-2,6.53,43,43,0,0,1,.06-7.08A5.83,5.83,0,0,1,136.66,287.7Z" style="opacity:0.2;isolation:isolate"></path><path d="M137.53,273.28s8.43,12.12,10.6,13.28-2-18.95-2-18.95l4.07-.88s7.21,24.18,2.37,28.33-17.86-7.91-17.86-7.91a44.86,44.86,0,0,1,0-8.3A9.29,9.29,0,0,1,137.53,273.28Z" style="fill:#263238"></path><path d="M137.53,273.28s8.43,12.12,10.6,13.28-2-18.95-2-18.95l4.07-.88s7.21,24.18,2.37,28.33-17.86-7.91-17.86-7.91a44.86,44.86,0,0,1,0-8.3A9.29,9.29,0,0,1,137.53,273.28Z" style="fill:#fff;opacity:0.1;isolation:isolate"></path></g><path d="M81.39,334h56.48a6.79,6.79,0,0,1,6.79,6.79v4.46a0,0,0,0,1,0,0H74.6a0,0,0,0,1,0,0V340.8A6.79,6.79,0,0,1,81.39,334Z" style="fill:#485FC7"></path><path d="M81.39,334h56.48a6.79,6.79,0,0,1,6.79,6.79v4.46a0,0,0,0,1,0,0H74.6a0,0,0,0,1,0,0V340.8A6.79,6.79,0,0,1,81.39,334Z" style="fill:#fff;opacity:0.4;isolation:isolate"></path><path d="M97.58,306.14h38.58c2,0,3.45,2.15,3,4.4l-6.9,34.72h-1.59l5.87-30.43c.44-2.24-1-4.38-3-4.38H98.37Z" style="fill:#263238"></path><path d="M114.13,346.47V375.8a1.71,1.71,0,0,1-1.7,1.71h-7.19a1.7,1.7,0,0,1-1.71-1.71V346.47Z" style="fill:#263238"></path><path d="M74.44,414.19a3.12,3.12,0,1,0-3.12,3.12A3.12,3.12,0,0,0,74.44,414.19Z" style="fill:#263238"></path><path d="M72.88,414.19a1.56,1.56,0,1,0-1.56,1.56A1.55,1.55,0,0,0,72.88,414.19Z" style="fill:#fff;opacity:0.2"></path><path d="M149.45,414.19a3.12,3.12,0,1,0-3.12,3.12A3.11,3.11,0,0,0,149.45,414.19Z" style="fill:#263238"></path><circle cx="146.33" cy="414.19" r="1.56" style="fill:#fff;opacity:0.2"></circle><path d="M111.41,400.52V367h-5.16v33.52c-20.08.52-32.28,7.53-34.72,9.07a1,1,0,0,0-.45.83v2.79a1,1,0,0,0,1,1h0a1,1,0,0,0,.86-.49l1.19-2.09a112.64,112.64,0,0,1,32.14-5.32v5.51a1.27,1.27,0,0,0,1.27,1.27h2.61a1.27,1.27,0,0,0,1.28-1.27v-5.51a112.64,112.64,0,0,1,32.14,5.32l1.19,2.09a1,1,0,0,0,.85.49h0a1,1,0,0,0,1-1v-2.79a1,1,0,0,0-.46-.83C143.68,408.05,131.48,401,111.41,400.52Z" style="fill:#263238"></path><rect x="107.14" y="411.08" width="3.38" height="6.23" style="fill:#263238"></rect><rect x="103.53" y="346.47" width="10.6" height="12.19" style="opacity:0.2;isolation:isolate"></rect><path d="M146.58,343.45V347a1.68,1.68,0,0,1-1.54,1.79H74.22A1.67,1.67,0,0,1,72.69,347v-3.5a1.68,1.68,0,0,1,1.53-1.79H145A1.69,1.69,0,0,1,146.58,343.45Z" style="fill:#263238"></path><path d="M114,345.26H72.69S59.56,323.7,59.56,288.07V275a9.8,9.8,0,0,1,9.86-9.73H86.94a9.8,9.8,0,0,1,9.86,9.46C97.31,293.07,100.05,332.82,114,345.26Z" style="fill:#263238"></path><path d="M104.91,345.26H74.55a3.15,3.15,0,0,1-2.79-1.67c-3-5.69-12.2-25.67-12.2-55.52V275a9.8,9.8,0,0,1,9.86-9.73H84.56a9.79,9.79,0,0,1,9.85,9.46c.46,16.4,2.69,49.87,13.11,65.69A3.11,3.11,0,0,1,104.91,345.26Z" style="fill:#fff;opacity:0.2"></path><path d="M146.58,343.45V347a1.68,1.68,0,0,1-1.53,1.79H113.31a2.27,2.27,0,0,1-2.08-2.42v-2.24a2.27,2.27,0,0,1,2.08-2.42H145A1.69,1.69,0,0,1,146.58,343.45Z" style="opacity:0.2;isolation:isolate"></path></g></svg>